<svg id="Layer_1" data-name="Layer 1" xmlns="http://www.w3.org/2000/svg" viewBox="0 0 1080 558"><defs><style>.cls-1{font-size:22px;fill:#5a9e70;}.cls-1,.cls-27,.cls-28{font-family:MyriadPro-Regular, Myriad Pro;}.cls-2{letter-spacing:-0.03em;}.cls-3{letter-spacing:0.02em;}.cls-4{letter-spacing:0.02em;}.cls-5{letter-spacing:0em;}.cls-6{letter-spacing:0.01em;}.cls-7{letter-spacing:-0.01em;}.cls-8{letter-spacing:-0.01em;}.cls-9{letter-spacing:0em;}.cls-10{letter-spacing:-0.01em;}.cls-11{letter-spacing:0em;}.cls-12{letter-spacing:0em;}.cls-13,.cls-22,.cls-23,.cls-24,.cls-26{fill:none;stroke-miterlimit:10;}.cls-13{stroke:#4694b3;stroke-width:2px;}.cls-14{fill:#4694b3;}.cls-15{letter-spacing:0.01em;}.cls-16{letter-spacing:0em;}.cls-17{letter-spacing:0em;}.cls-18{letter-spacing:0.03em;}.cls-19{letter-spacing:-0.07em;}.cls-20{letter-spacing:0em;}.cls-21{letter-spacing:-0.01em;}.cls-22,.cls-23,.cls-24{stroke:#000;}.cls-22{stroke-width:8px;}.cls-23,.cls-26{stroke-width:4px;}.cls-24{stroke-width:6px;}.cls-25{fill:#fe0000;}.cls-26{stroke:#fe0000;}.cls-27{font-size:48px;}.cls-28{font-size:32px;}.cls-29{letter-spacing:-0.04em;}.cls-30{letter-spacing:-0.07em;}.cls-31{letter-spacing:0em;}.cls-32{letter-spacing:0.01em;}.cls-33{letter-spacing:0.01em;}.cls-34{letter-spacing:-0.01em;}</style></defs><title>15Artboard 1</title><text class="cls-1" transform="translate(645 104.57)"><tspan class="cls-2">V</tspan><tspan x="11.55" y="0">alue</tspan></text><text class="cls-1" transform="translate(660 159.18)">Unit</text><text class="cls-1" transform="translate(645 425.5)">Division</text><text class="cls-1" transform="translate(409 425.5)">Su<tspan class="cls-3" x="22.97" y="0">b</tspan><tspan class="cls-4" x="35.82" y="0">-</tspan><tspan class="cls-5" x="42.96" y="0">division</tspan><tspan x="0" y="26.4">(</tspan><tspan class="cls-6" x="6.25" y="26.4">M</tspan><tspan class="cls-7" x="24.07" y="26.4">a</tspan><tspan x="34.5" y="26.4">y </tspan><tspan class="cls-8" x="49.52" y="26.4">c</tspan><tspan x="59.25" y="26.4">o</tspan><tspan class="cls-9" x="71.32" y="26.4">n</tspan><tspan class="cls-5" x="83.44" y="26.4">tain</tspan><tspan x="0" y="52.8">se</tspan><tspan class="cls-10" x="19.73" y="52.8">v</tspan><tspan class="cls-11" x="30.1" y="52.8">e</tspan><tspan class="cls-12" x="41.12" y="52.8">r</tspan><tspan x="48.2" y="52.8">al ticks)</tspan></text><line class="cls-13" x1="564.17" y1="139.25" x2="630.99" y2="110.59"/><polygon class="cls-14" points="630.15 114.86 641.09 106.26 627.31 108.24 630.15 114.86"/><line class="cls-13" x1="568" y1="192.3" x2="643.79" y2="160.9"/><polygon class="cls-14" points="642.89 165.17 653.94 156.7 640.14 158.52 642.89 165.17"/><polyline class="cls-13" points="540 331 540 379 820 379 820 333"/><line class="cls-13" x1="680" y1="379" x2="680" y2="397"/><polyline class="cls-13" points="455 322 455 379 483 379 483 324"/><line class="cls-13" x1="469" y1="379" x2="469" y2="397"/><line class="cls-13" x1="545.26" y1="264" x2="681.7" y2="213.56"/><polygon class="cls-14" points="680.64 217.79 692 209.75 678.14 211.03 680.64 217.79"/><line class="cls-13" x1="539.5" y1="297.5" x2="684.86" y2="251.33"/><polygon class="cls-14" points="683.61 255.5 695.33 248 681.43 248.64 683.61 255.5"/><text class="cls-1" transform="translate(698.74 215)"><tspan class="cls-15">I</tspan><tspan x="5.48" y="0">ndic</tspan><tspan class="cls-16" x="45.1" y="0">a</tspan><tspan class="cls-8" x="55.62" y="0">t</tspan><tspan class="cls-17" x="62.77" y="0">o</tspan><tspan class="cls-18" x="74.84" y="0">r</tspan><tspan class="cls-19" x="82.7" y="0">’</tspan><tspan x="85.67" y="0">s t</tspan><tspan class="cls-20" x="106.32" y="0">r</tspan><tspan x="113.61" y="0">iangle</tspan></text><text class="cls-1" transform="translate(702.74 248)"><tspan class="cls-15">I</tspan><tspan x="5.48" y="0">ndic</tspan><tspan class="cls-16" x="45.1" y="0">a</tspan><tspan class="cls-8" x="55.62" y="0">t</tspan><tspan class="cls-17" x="62.77" y="0">o</tspan><tspan class="cls-18" x="74.84" y="0">r</tspan><tspan class="cls-19" x="82.7" y="0">’</tspan><tspan x="85.67" y="0">s needle</tspan></text><line class="cls-13" x1="158" y1="274" x2="108.77" y2="224.77"/><polygon class="cls-14" points="113.05 223.96 101 217 107.96 229.05 113.05 223.96"/><line class="cls-13" x1="514.58" y1="274.75" x2="326.92" y2="238.31"/><polygon class="cls-14" points="330.02 235.24 316.13 236.21 328.64 242.31 330.02 235.24"/><line class="cls-13" x1="490.47" y1="236.87" x2="359.29" y2="187.85"/><polygon class="cls-14" points="362.85 185.33 349 184 360.33 192.08 362.85 185.33"/><line class="cls-13" x1="490.47" y1="180.63" x2="365.8" y2="117.46"/><polygon class="cls-14" points="369.62 115.36 356 112.5 366.36 121.79 369.62 115.36"/><line class="cls-13" x1="223.73" y1="331" x2="140.72" y2="392.46"/><polygon class="cls-14" points="140.55 388.11 131.89 399 144.84 393.9 140.55 388.11"/><line class="cls-13" x1="263" y1="363" x2="307.23" y2="407.23"/><polygon class="cls-14" points="302.95 408.04 315 415 308.04 402.95 302.95 408.04"/><text class="cls-1" transform="translate(47 206)"><tspan class="cls-20">B</tspan><tspan x="12.01" y="0">o</tspan><tspan class="cls-21" x="24.09" y="0">r</tspan><tspan class="cls-5" x="31.06" y="0">der</tspan></text><line class="cls-13" x1="820" y1="319.33" x2="909.38" y2="412.09"/><polygon class="cls-14" points="905.08 412.82 917 420 910.27 407.82 905.08 412.82"/><line class="cls-13" x1="876" y1="312.67" x2="933.47" y2="371.16"/><polygon class="cls-14" points="929.18 371.94 941.17 379 934.32 366.89 929.18 371.94"/><text class="cls-1" transform="translate(877.16 445.26)">Division<tspan x="17.46" y="24">Line</tspan></text><text class="cls-1" transform="translate(933.8 404)">Su<tspan class="cls-3" x="22.97" y="0">b</tspan><tspan class="cls-4" x="35.82" y="0">-</tspan><tspan class="cls-5" x="42.96" y="0">division</tspan><tspan x="37.82" y="24">Line</tspan></text><polyline class="cls-22" points="120 322 120 285 961 285 961 322"/><line class="cls-23" x1="148" y1="285" x2="148" y2="310"/><line class="cls-23" x1="176" y1="285" x2="176" y2="310"/><line class="cls-23" x1="204" y1="285" x2="204" y2="310"/><line class="cls-23" x1="232" y1="285" x2="232" y2="310"/><line class="cls-24" x1="260" y1="285" x2="260" y2="319.33"/><line class="cls-23" x1="288" y1="285" x2="288" y2="310"/><line class="cls-23" x1="316" y1="285" x2="316" y2="310"/><line class="cls-23" x1="344" y1="285" x2="344" y2="310"/><line class="cls-23" x1="372" y1="285" x2="372" y2="310"/><line class="cls-23" x1="400" y1="285" x2="400" y2="310"/><line class="cls-23" x1="428" y1="285" x2="428" y2="310"/><line class="cls-23" x1="456" y1="285" x2="456" y2="310"/><line class="cls-23" x1="484" y1="285" x2="484" y2="310"/><line class="cls-23" x1="512" y1="285" x2="512" y2="310"/><line class="cls-24" x1="540" y1="285" x2="540" y2="319.33"/><line class="cls-23" x1="568" y1="285" x2="568" y2="310"/><line class="cls-23" x1="596" y1="285" x2="596" y2="310"/><line class="cls-23" x1="624" y1="285" x2="624" y2="310"/><line class="cls-23" x1="652" y1="285" x2="652" y2="310"/><line class="cls-23" x1="680" y1="285" x2="680" y2="310"/><line class="cls-23" x1="708" y1="285" x2="708" y2="310"/><line class="cls-23" x1="736" y1="285" x2="736" y2="310"/><line class="cls-23" x1="764" y1="285" x2="764" y2="310"/><line class="cls-23" x1="792" y1="285" x2="792" y2="310"/><line class="cls-24" x1="820" y1="285" x2="820" y2="319.33"/><line class="cls-23" x1="848" y1="285" x2="848" y2="310"/><line class="cls-23" x1="876" y1="285" x2="876" y2="310"/><line class="cls-23" x1="904" y1="285" x2="904" y2="310"/><line class="cls-23" x1="932" y1="285" x2="932" y2="310"/><polygon class="cls-25" points="540.21 272.48 554.92 258.26 525.5 258.26 540.21 272.48"/><line class="cls-26" x1="540" y1="319.33" x2="540" y2="267.5"/><text class="cls-27" transform="translate(514.88 169.5)">50</text><text class="cls-27" transform="translate(509.73 215)">cm</text><text class="cls-28" transform="translate(243.58 361)">40</text><text class="cls-28" transform="translate(523.08 361)">50</text><text class="cls-28" transform="translate(803.58 361)">60</text><polyline class="cls-13" points="263 322 223.73 322 223.73 339.33 263 339.33"/><text class="cls-1" transform="translate(90.24 425.5)">Division<tspan class="cls-29" x="73.68" y="0"> </tspan><tspan class="cls-30" x="77.44" y="0">T</tspan><tspan class="cls-31" x="86.81" y="0">e</tspan><tspan class="cls-32" x="97.77" y="0">x</tspan><tspan x="108.24" y="0">t</tspan><tspan x="25.01" y="24">ma</tspan><tspan class="cls-7" x="53.97" y="24">r</tspan><tspan class="cls-8" x="60.98" y="24">g</tspan><tspan x="73.15" y="24">in</tspan></text><text class="cls-1" transform="translate(285.83 438.67)">Division<tspan class="cls-8" x="18.91" y="24">t</tspan><tspan class="cls-31" x="26.06" y="24">e</tspan><tspan class="cls-32" x="37.01" y="24">x</tspan><tspan x="47.49" y="24">t</tspan></text><polyline class="cls-13" points="534.22 270.42 514.58 270.42 514.58 279.08 534.22 279.08"/><polyline class="cls-13" points="510.1 218 490.47 218 490.47 255.5 510.1 255.5"/><polyline class="cls-13" points="510.1 172.25 490.47 172.25 490.47 189 510.1 189"/><text class="cls-1" transform="translate(221.98 228.5)"><tspan class="cls-33">I</tspan><tspan class="cls-11" x="5.48" y="0">ndic</tspan><tspan class="cls-9" x="45.1" y="0">a</tspan><tspan class="cls-8" x="55.62" y="0">t</tspan><tspan x="62.77" y="0">or</tspan><tspan x="15.16" y="24">o</tspan><tspan class="cls-34" x="27.24" y="24">ff</tspan><tspan x="39.86" y="24">set</tspan></text><text class="cls-1" transform="translate(261.01 98.25)"><tspan class="cls-2">V</tspan><tspan x="11.55" y="0">alue </tspan><tspan class="cls-8" x="55.15" y="0">t</tspan><tspan class="cls-31" x="62.3" y="0">e</tspan><tspan class="cls-32" x="73.26" y="0">x</tspan><tspan x="83.73" y="0">t</tspan><tspan x="12.76" y="24">ma</tspan><tspan class="cls-7" x="41.71" y="24">r</tspan><tspan class="cls-8" x="48.73" y="24">g</tspan><tspan x="60.9" y="24">in</tspan></text><text class="cls-1" transform="translate(257.97 169.5)">Unit label<tspan x="11.29" y="24">ma</tspan><tspan class="cls-7" x="40.24" y="24">r</tspan><tspan class="cls-8" x="47.26" y="24">g</tspan><tspan x="59.42" y="24">in</tspan></text></svg>