<svg id="Layer_1" data-name="Layer 1" xmlns="http://www.w3.org/2000/svg" viewBox="0 0 1080 558"><defs><style>.cls-1{fill:#5a9e70;}.cls-2,.cls-4,.cls-5,.cls-6,.cls-8{fill:none;stroke-miterlimit:10;}.cls-2{stroke:#4694b3;stroke-width:2px;}.cls-3{fill:#4694b3;}.cls-4,.cls-5,.cls-6{stroke:#000;}.cls-4{stroke-width:8px;}.cls-5,.cls-8{stroke-width:4px;}.cls-6{stroke-width:6px;}.cls-7{fill:#fe0000;}.cls-8{stroke:#fe0000;}</style></defs><title>15Artboard 1</title><path class="cls-1" d="M649.93,104.58l-4.84-14.83h2.07l2.31,7.31c.64,2,1.19,3.81,1.58,5.54h0c.42-1.72,1-3.59,1.69-5.52l2.51-7.33h2L652,104.58Z"/><path class="cls-1" d="M664.05,104.58l-.15-1.34h-.07a4,4,0,0,1-3.26,1.58,3,3,0,0,1-3.26-3.06c0-2.57,2.29-4,6.4-4v-.22a2.19,2.19,0,0,0-2.42-2.46,5.31,5.31,0,0,0-2.77.79l-.44-1.28a6.61,6.61,0,0,1,3.5-.95c3.26,0,4,2.22,4,4.36v4a15,15,0,0,0,.18,2.55Zm-.29-5.43c-2.11,0-4.51.33-4.51,2.4a1.71,1.71,0,0,0,1.83,1.85,2.65,2.65,0,0,0,2.57-1.78,2,2,0,0,0,.11-.62Z"/><path class="cls-1" d="M668.76,89h1.94v15.62h-1.94Z"/><path class="cls-1" d="M682.86,101.67c0,1.1,0,2.07.09,2.9h-1.72l-.11-1.74h0a4,4,0,0,1-3.52,2c-1.67,0-3.67-.92-3.67-4.67V93.93h1.94v5.9c0,2,.62,3.39,2.38,3.39a2.72,2.72,0,0,0,2.73-2.75V93.93h1.94Z"/><path class="cls-1" d="M687.15,99.6a3.41,3.41,0,0,0,3.65,3.7,7,7,0,0,0,2.95-.55l.33,1.39a8.62,8.62,0,0,1-3.54.66c-3.28,0-5.24-2.16-5.24-5.37s1.89-5.74,5-5.74c3.48,0,4.4,3.06,4.4,5a7.44,7.44,0,0,1-.07.9Zm5.68-1.39c0-1.23-.51-3.15-2.68-3.15-2,0-2.82,1.8-3,3.15Z"/><path class="cls-1" d="M663.59,144.35v8.78c0,3.32,1.47,4.73,3.45,4.73,2.2,0,3.61-1.45,3.61-4.73v-8.78h1.94V153c0,4.55-2.4,6.43-5.61,6.43-3,0-5.33-1.74-5.33-6.34v-8.74Z"/><path class="cls-1" d="M675.84,151.41c0-1.1,0-2-.09-2.88h1.72l.11,1.76h0a3.91,3.91,0,0,1,3.52-2c1.47,0,3.76.88,3.76,4.53v6.36H683V153c0-1.72-.64-3.15-2.46-3.15a2.75,2.75,0,0,0-2.6,2,2.79,2.79,0,0,0-.13.9v6.4h-1.94Z"/><path class="cls-1" d="M690.21,145.54a1.2,1.2,0,0,1-2.4,0,1.18,1.18,0,0,1,1.21-1.21A1.15,1.15,0,0,1,690.21,145.54Zm-2.16,13.64V148.53H690v10.65Z"/><path class="cls-1" d="M695.53,145.47v3.06h2.77V150h-2.77v5.74c0,1.32.37,2.07,1.45,2.07a4.3,4.3,0,0,0,1.12-.13l.09,1.45a4.76,4.76,0,0,1-1.72.26,2.68,2.68,0,0,1-2.09-.81,3.94,3.94,0,0,1-.75-2.77V150H692v-1.47h1.65V146Z"/><path class="cls-1" d="M646.67,410.87a27.32,27.32,0,0,1,4.07-.31c2.75,0,4.71.64,6,1.85a6.83,6.83,0,0,1,2.09,5.32,7.84,7.84,0,0,1-2.13,5.77c-1.39,1.39-3.67,2.13-6.56,2.13a30.85,30.85,0,0,1-3.48-.18ZM648.59,424a12.12,12.12,0,0,0,1.94.11c4.09,0,6.31-2.29,6.31-6.29,0-3.5-2-5.72-6-5.72a10.86,10.86,0,0,0-2.25.2Z"/><path class="cls-1" d="M663.41,411.86a1.2,1.2,0,0,1-2.4,0,1.18,1.18,0,0,1,1.21-1.21A1.15,1.15,0,0,1,663.41,411.86Zm-2.16,13.64V414.85h1.94V425.5Z"/><path class="cls-1" d="M667.15,414.85l2.09,6a27.26,27.26,0,0,1,.86,2.73h.07c.24-.88.55-1.76.9-2.73l2.07-6h2L671,425.5h-1.85l-4-10.65Z"/><path class="cls-1" d="M679.14,411.86a1.2,1.2,0,0,1-2.4,0,1.18,1.18,0,0,1,1.21-1.21A1.15,1.15,0,0,1,679.14,411.86ZM677,425.5V414.85h1.94V425.5Z"/><path class="cls-1" d="M681.87,423.52a5.07,5.07,0,0,0,2.55.77c1.41,0,2.07-.7,2.07-1.58s-.55-1.43-2-2c-1.91-.68-2.82-1.74-2.82-3,0-1.72,1.39-3.12,3.67-3.12a5.31,5.31,0,0,1,2.62.66l-.48,1.41a4.14,4.14,0,0,0-2.18-.62c-1.14,0-1.78.66-1.78,1.45s.64,1.28,2,1.8c1.85.7,2.79,1.63,2.79,3.21,0,1.87-1.45,3.19-4,3.19a6.09,6.09,0,0,1-3-.73Z"/><path class="cls-1" d="M693,411.86a1.2,1.2,0,0,1-2.4,0,1.18,1.18,0,0,1,1.21-1.21A1.15,1.15,0,0,1,693,411.86Zm-2.16,13.64V414.85h1.94V425.5Z"/><path class="cls-1" d="M705.63,420.09c0,3.94-2.73,5.66-5.3,5.66-2.88,0-5.11-2.11-5.11-5.48,0-3.56,2.33-5.66,5.28-5.66S705.63,416.83,705.63,420.09Zm-8.45.11c0,2.33,1.34,4.09,3.23,4.09s3.23-1.74,3.23-4.14c0-1.8-.9-4.09-3.19-4.09S697.18,418.17,697.18,420.2Z"/><path class="cls-1" d="M708.07,417.73c0-1.1,0-2-.09-2.88h1.72l.11,1.76h0a3.92,3.92,0,0,1,3.52-2c1.47,0,3.76.88,3.76,4.53v6.36H715.2v-6.14c0-1.72-.64-3.15-2.46-3.15a2.75,2.75,0,0,0-2.6,2,2.78,2.78,0,0,0-.13.9v6.4h-1.94Z"/><path class="cls-1" d="M410.41,423.17a6.79,6.79,0,0,0,3.43,1c2,0,3.1-1,3.1-2.53s-.79-2.18-2.79-2.95c-2.42-.86-3.92-2.11-3.92-4.2,0-2.31,1.91-4,4.8-4a6.74,6.74,0,0,1,3.28.73l-.53,1.56A5.91,5.91,0,0,0,415,412c-2,0-2.79,1.21-2.79,2.22,0,1.39.9,2.07,2.95,2.86,2.51,1,3.78,2.18,3.78,4.36s-1.69,4.27-5.19,4.27a7.66,7.66,0,0,1-3.78-.95Z"/><path class="cls-1" d="M430.36,422.6c0,1.1,0,2.07.09,2.9h-1.72l-.11-1.74h0a4,4,0,0,1-3.52,2c-1.67,0-3.67-.92-3.67-4.67v-6.23h1.94v5.9c0,2,.62,3.39,2.38,3.39a2.8,2.8,0,0,0,2.55-1.76,2.84,2.84,0,0,0,.18-1v-6.54h1.94Z"/><path class="cls-1" d="M433.49,425.5c0-.73.09-1.8.09-2.75V409.88h1.91v6.69h0a4,4,0,0,1,3.63-2c2.64,0,4.51,2.2,4.49,5.43,0,3.81-2.4,5.7-4.77,5.7a3.79,3.79,0,0,1-3.56-2h-.07l-.09,1.76Zm2-4.27a3.63,3.63,0,0,0,.09.7,3,3,0,0,0,2.9,2.27c2,0,3.23-1.65,3.23-4.09,0-2.13-1.1-4-3.17-4a3.09,3.09,0,0,0-2.95,2.38,3.81,3.81,0,0,0-.11.79Z"/><path class="cls-1" d="M450.91,418.83v1.43h-5.43v-1.43Z"/><path class="cls-1" d="M462.77,409.88v12.87c0,.95,0,2,.09,2.75h-1.74l-.09-1.85h0a3.94,3.94,0,0,1-3.63,2.09c-2.57,0-4.55-2.18-4.55-5.41,0-3.54,2.18-5.72,4.77-5.72a3.56,3.56,0,0,1,3.21,1.63h0v-6.36Zm-1.94,9.31a3.43,3.43,0,0,0-.09-.81,2.85,2.85,0,0,0-2.79-2.24c-2,0-3.19,1.76-3.19,4.11,0,2.16,1.06,3.94,3.15,3.94a2.91,2.91,0,0,0,2.84-2.31,3.36,3.36,0,0,0,.09-.84Z"/><path class="cls-1" d="M468.14,411.86a1.2,1.2,0,0,1-2.4,0,1.18,1.18,0,0,1,1.21-1.21A1.15,1.15,0,0,1,468.14,411.86ZM466,425.5V414.85h1.94V425.5Z"/><path class="cls-1" d="M471.88,414.85l2.09,6a27.5,27.5,0,0,1,.86,2.73h.07c.24-.88.55-1.76.9-2.73l2.07-6h2L475.7,425.5h-1.85l-4-10.65Z"/><path class="cls-1" d="M483.86,411.86a1.2,1.2,0,0,1-2.4,0,1.18,1.18,0,0,1,1.21-1.21A1.15,1.15,0,0,1,483.86,411.86Zm-2.16,13.64V414.85h1.94V425.5Z"/><path class="cls-1" d="M486.59,423.52a5.07,5.07,0,0,0,2.55.77c1.41,0,2.07-.7,2.07-1.58s-.55-1.43-2-2c-1.91-.68-2.82-1.74-2.82-3,0-1.72,1.39-3.12,3.67-3.12a5.31,5.31,0,0,1,2.62.66l-.48,1.41a4.15,4.15,0,0,0-2.18-.62c-1.14,0-1.78.66-1.78,1.45s.64,1.28,2,1.8c1.85.7,2.79,1.63,2.79,3.21,0,1.87-1.45,3.19-4,3.19a6.08,6.08,0,0,1-3-.73Z"/><path class="cls-1" d="M497.72,411.86a1.2,1.2,0,0,1-2.4,0,1.18,1.18,0,0,1,1.21-1.21A1.15,1.15,0,0,1,497.72,411.86Zm-2.16,13.64V414.85h1.94V425.5Z"/><path class="cls-1" d="M510.35,420.09c0,3.94-2.73,5.66-5.3,5.66-2.88,0-5.1-2.11-5.1-5.48,0-3.56,2.33-5.66,5.28-5.66S510.35,416.83,510.35,420.09Zm-8.45.11c0,2.33,1.34,4.09,3.23,4.09s3.23-1.74,3.23-4.14c0-1.8-.9-4.09-3.19-4.09S501.9,418.17,501.9,420.2Z"/><path class="cls-1" d="M512.79,417.73c0-1.1,0-2-.09-2.88h1.72l.11,1.76h0a3.92,3.92,0,0,1,3.52-2c1.47,0,3.76.88,3.76,4.53v6.36h-1.94v-6.14c0-1.72-.64-3.15-2.46-3.15a2.75,2.75,0,0,0-2.6,2,2.78,2.78,0,0,0-.13.9v6.4h-1.94Z"/><path class="cls-1" d="M414.81,436.63a14.51,14.51,0,0,0-2.77,9,14.83,14.83,0,0,0,2.77,8.93h-1.52a14.22,14.22,0,0,1-2.88-8.93,14.53,14.53,0,0,1,2.88-9Z"/><path class="cls-1" d="M429.42,445.39c-.11-2.07-.24-4.55-.22-6.4h-.07c-.51,1.74-1.12,3.59-1.87,5.63l-2.62,7.2h-1.45l-2.4-7.06c-.7-2.09-1.3-4-1.72-5.76h0c0,1.85-.15,4.33-.29,6.56l-.4,6.36h-1.83l1-14.83H420l2.53,7.17c.62,1.83,1.12,3.46,1.5,5h.07c.37-1.5.9-3.12,1.56-5l2.64-7.17h2.44l.92,14.83h-1.87Z"/><path class="cls-1" d="M440.57,451.9l-.15-1.34h-.07a4,4,0,0,1-3.26,1.58,3,3,0,0,1-3.26-3.06c0-2.57,2.29-4,6.4-4v-.22a2.19,2.19,0,0,0-2.42-2.46,5.3,5.3,0,0,0-2.77.79l-.44-1.28a6.61,6.61,0,0,1,3.5-.95c3.26,0,4,2.22,4,4.36v4a15,15,0,0,0,.18,2.55Zm-.29-5.43c-2.11,0-4.51.33-4.51,2.4a1.71,1.71,0,0,0,1.83,1.85,2.65,2.65,0,0,0,2.57-1.78,2,2,0,0,0,.11-.62Z"/><path class="cls-1" d="M445.81,441.25l2.33,6.29c.24.7.51,1.54.68,2.18h0c.2-.64.42-1.45.68-2.22l2.11-6.25h2l-2.9,7.59c-1.39,3.65-2.33,5.52-3.65,6.67a5.24,5.24,0,0,1-2.38,1.25l-.48-1.63a5.12,5.12,0,0,0,1.69-.95,5.87,5.87,0,0,0,1.63-2.16,1.39,1.39,0,0,0,.15-.46,1.69,1.69,0,0,0-.13-.51l-3.94-9.81Z"/><path class="cls-1" d="M467.72,451.5a7.12,7.12,0,0,1-3.06.62,5.06,5.06,0,0,1-5.3-5.43,5.41,5.41,0,0,1,5.72-5.65,6.46,6.46,0,0,1,2.68.55l-.44,1.5a4.49,4.49,0,0,0-2.24-.51c-2.44,0-3.76,1.8-3.76,4a3.65,3.65,0,0,0,3.7,4,5.5,5.5,0,0,0,2.38-.53Z"/><path class="cls-1" d="M479.49,446.49c0,3.94-2.73,5.66-5.3,5.66-2.88,0-5.1-2.11-5.1-5.48,0-3.56,2.33-5.66,5.28-5.66S479.49,443.23,479.49,446.49Zm-8.45.11c0,2.33,1.34,4.09,3.23,4.09s3.23-1.74,3.23-4.14c0-1.8-.9-4.09-3.19-4.09S471,444.57,471,446.6Z"/><path class="cls-1" d="M481.93,444.13c0-1.1,0-2-.09-2.88h1.72l.11,1.76h0a3.92,3.92,0,0,1,3.52-2c1.47,0,3.76.88,3.76,4.53v6.36h-1.94v-6.14c0-1.72-.64-3.15-2.46-3.15a2.75,2.75,0,0,0-2.6,2,2.78,2.78,0,0,0-.13.9v6.4h-1.94Z"/><path class="cls-1" d="M496.38,438.19v3.06h2.77v1.47h-2.77v5.74c0,1.32.37,2.07,1.45,2.07a4.33,4.33,0,0,0,1.12-.13l.09,1.45a4.74,4.74,0,0,1-1.72.26,2.68,2.68,0,0,1-2.09-.81,4,4,0,0,1-.75-2.77v-5.81h-1.65v-1.47h1.65V438.7Z"/><path class="cls-1" d="M507.23,451.9l-.15-1.34H507a4,4,0,0,1-3.26,1.58,3,3,0,0,1-3.26-3.06c0-2.57,2.29-4,6.4-4v-.22a2.2,2.2,0,0,0-2.42-2.46,5.3,5.3,0,0,0-2.77.79l-.44-1.28a6.61,6.61,0,0,1,3.5-.95c3.26,0,4,2.22,4,4.36v4a15,15,0,0,0,.18,2.55Zm-.29-5.43c-2.11,0-4.51.33-4.51,2.4a1.71,1.71,0,0,0,1.83,1.85,2.65,2.65,0,0,0,2.57-1.78,2,2,0,0,0,.11-.62Z"/><path class="cls-1" d="M514.09,438.26a1.2,1.2,0,0,1-2.4,0,1.18,1.18,0,0,1,1.21-1.21A1.15,1.15,0,0,1,514.09,438.26Zm-2.16,13.64V441.25h1.94V451.9Z"/><path class="cls-1" d="M517.08,444.13c0-1.1,0-2-.09-2.88h1.72l.11,1.76h0a3.92,3.92,0,0,1,3.52-2c1.47,0,3.76.88,3.76,4.53v6.36h-1.94v-6.14c0-1.72-.64-3.15-2.46-3.15a2.75,2.75,0,0,0-2.6,2,2.78,2.78,0,0,0-.13.9v6.4h-1.94Z"/><path class="cls-1" d="M410.34,476.32a5.07,5.07,0,0,0,2.55.77c1.41,0,2.07-.7,2.07-1.58s-.55-1.43-2-2c-1.91-.68-2.82-1.74-2.82-3,0-1.72,1.39-3.12,3.67-3.12a5.31,5.31,0,0,1,2.62.66l-.48,1.41a4.15,4.15,0,0,0-2.18-.62c-1.14,0-1.78.66-1.78,1.45s.64,1.28,2,1.8c1.85.7,2.79,1.63,2.79,3.21,0,1.87-1.45,3.19-4,3.19a6.08,6.08,0,0,1-3-.73Z"/><path class="cls-1" d="M420.4,473.33A3.41,3.41,0,0,0,424,477a7,7,0,0,0,2.95-.55l.33,1.39a8.62,8.62,0,0,1-3.54.66c-3.28,0-5.24-2.16-5.24-5.37s1.89-5.74,5-5.74c3.48,0,4.4,3.06,4.4,5a7.31,7.31,0,0,1-.07.9Zm5.68-1.39c0-1.23-.51-3.15-2.68-3.15-2,0-2.82,1.8-3,3.15Z"/><path class="cls-1" d="M431.09,467.65l2.09,6a27.5,27.5,0,0,1,.86,2.73h.07c.24-.88.55-1.76.9-2.73l2.07-6h2l-4.18,10.65h-1.85l-4-10.65Z"/><path class="cls-1" d="M441.78,473.33a3.41,3.41,0,0,0,3.65,3.7,7,7,0,0,0,2.95-.55l.33,1.39a8.62,8.62,0,0,1-3.54.66c-3.28,0-5.24-2.16-5.24-5.37s1.89-5.74,5-5.74c3.48,0,4.4,3.06,4.4,5a7.31,7.31,0,0,1-.07.9Zm5.68-1.39c0-1.23-.51-3.15-2.68-3.15-2,0-2.82,1.8-3,3.15Z"/><path class="cls-1" d="M451.72,471c0-1.25,0-2.33-.09-3.32h1.69l.07,2.09h.09a3.19,3.19,0,0,1,2.95-2.33,2.09,2.09,0,0,1,.55.07v1.83a2.91,2.91,0,0,0-.66-.07,2.72,2.72,0,0,0-2.6,2.49,5.47,5.47,0,0,0-.09.9v5.68h-1.91Z"/><path class="cls-1" d="M464.7,478.3l-.15-1.34h-.07a4,4,0,0,1-3.26,1.58,3,3,0,0,1-3.26-3.06c0-2.57,2.29-4,6.4-4v-.22a2.19,2.19,0,0,0-2.42-2.46,5.3,5.3,0,0,0-2.77.79l-.44-1.28a6.61,6.61,0,0,1,3.5-.95c3.26,0,4,2.22,4,4.36v4a15,15,0,0,0,.18,2.55Zm-.29-5.43c-2.11,0-4.51.33-4.51,2.4a1.71,1.71,0,0,0,1.83,1.85,2.65,2.65,0,0,0,2.57-1.78,2,2,0,0,0,.11-.62Z"/><path class="cls-1" d="M469.41,462.68h1.94V478.3h-1.94Z"/><path class="cls-1" d="M481.6,464.59v3.06h2.77v1.47H481.6v5.74c0,1.32.37,2.07,1.45,2.07a4.33,4.33,0,0,0,1.12-.13l.09,1.45a4.74,4.74,0,0,1-1.72.26,2.68,2.68,0,0,1-2.09-.81,4,4,0,0,1-.75-2.77v-5.81h-1.65v-1.47h1.65V465.1Z"/><path class="cls-1" d="M488.71,464.66a1.2,1.2,0,0,1-2.4,0,1.18,1.18,0,0,1,1.21-1.21A1.15,1.15,0,0,1,488.71,464.66Zm-2.16,13.64V467.65h1.94V478.3Z"/><path class="cls-1" d="M499.29,477.9a7.12,7.12,0,0,1-3.06.62,5.06,5.06,0,0,1-5.3-5.43,5.41,5.41,0,0,1,5.72-5.65,6.46,6.46,0,0,1,2.68.55l-.44,1.5a4.49,4.49,0,0,0-2.24-.51c-2.44,0-3.76,1.8-3.76,4a3.65,3.65,0,0,0,3.7,4,5.5,5.5,0,0,0,2.38-.53Z"/><path class="cls-1" d="M503.47,472.54h0c.26-.37.64-.84.95-1.21l3.13-3.67h2.33L505.8,472l4.69,6.27h-2.35l-3.67-5.1-1,1.1v4h-1.91V462.68h1.91Z"/><path class="cls-1" d="M511.61,476.32a5.08,5.08,0,0,0,2.55.77c1.41,0,2.07-.7,2.07-1.58s-.55-1.43-2-2c-1.91-.68-2.82-1.74-2.82-3,0-1.72,1.39-3.12,3.67-3.12a5.31,5.31,0,0,1,2.62.66l-.48,1.41a4.14,4.14,0,0,0-2.18-.62c-1.14,0-1.78.66-1.78,1.45s.64,1.28,2,1.8c1.85.7,2.79,1.63,2.79,3.21,0,1.87-1.45,3.19-4,3.19a6.08,6.08,0,0,1-3-.73Z"/><path class="cls-1" d="M519.42,481a14.89,14.89,0,0,0,2.77-9,14.59,14.59,0,0,0-2.77-8.93h1.5a14,14,0,0,1,2.88,9,14.28,14.28,0,0,1-2.88,9Z"/><line class="cls-2" x1="564.17" y1="139.25" x2="630.99" y2="110.59"/><polygon class="cls-3" points="630.15 114.86 641.09 106.26 627.31 108.24 630.15 114.86"/><line class="cls-2" x1="568" y1="192.3" x2="643.79" y2="160.9"/><polygon class="cls-3" points="642.89 165.17 653.94 156.7 640.14 158.52 642.89 165.17"/><polyline class="cls-2" points="540 331 540 379 820 379 820 333"/><line class="cls-2" x1="680" y1="379" x2="680" y2="397"/><polyline class="cls-2" points="455 322 455 379 483 379 483 324"/><line class="cls-2" x1="469" y1="379" x2="469" y2="397"/><line class="cls-2" x1="545.26" y1="264" x2="681.7" y2="213.56"/><polygon class="cls-3" points="680.64 217.79 692 209.75 678.14 211.03 680.64 217.79"/><line class="cls-2" x1="539.5" y1="297.5" x2="684.86" y2="251.33"/><polygon class="cls-3" points="683.61 255.5 695.33 248 681.43 248.64 683.61 255.5"/><path class="cls-1" d="M702.32,200.17V215h-1.92V200.17Z"/><path class="cls-1" d="M705.82,207.23c0-1.1,0-2-.09-2.88h1.72l.11,1.76h0a3.92,3.92,0,0,1,3.52-2c1.47,0,3.76.88,3.76,4.53V215h-1.94v-6.14c0-1.72-.64-3.15-2.46-3.15a2.75,2.75,0,0,0-2.6,2,2.79,2.79,0,0,0-.13.9V215h-1.94Z"/><path class="cls-1" d="M727.23,199.38v12.87c0,.95,0,2,.09,2.75h-1.74l-.09-1.85h0a3.94,3.94,0,0,1-3.63,2.09c-2.57,0-4.55-2.18-4.55-5.41,0-3.54,2.18-5.72,4.77-5.72a3.56,3.56,0,0,1,3.21,1.63h0v-6.36Zm-1.94,9.31a3.39,3.39,0,0,0-.09-.81,2.85,2.85,0,0,0-2.79-2.25c-2,0-3.19,1.76-3.19,4.12,0,2.16,1.06,3.94,3.15,3.94a2.91,2.91,0,0,0,2.84-2.31,3.34,3.34,0,0,0,.09-.84Z"/><path class="cls-1" d="M732.59,201.36a1.2,1.2,0,0,1-2.4,0,1.18,1.18,0,0,1,1.21-1.21A1.15,1.15,0,0,1,732.59,201.36ZM730.44,215V204.35h1.94V215Z"/><path class="cls-1" d="M743.18,214.6a7.12,7.12,0,0,1-3.06.62,5.06,5.06,0,0,1-5.3-5.43,5.41,5.41,0,0,1,5.72-5.66,6.46,6.46,0,0,1,2.68.55l-.44,1.5a4.49,4.49,0,0,0-2.25-.51c-2.44,0-3.76,1.8-3.76,4a3.65,3.65,0,0,0,3.7,4,5.5,5.5,0,0,0,2.38-.53Z"/><path class="cls-1" d="M751.34,215l-.15-1.34h-.07a4,4,0,0,1-3.26,1.58,3,3,0,0,1-3.26-3.06c0-2.57,2.29-4,6.4-4V208a2.2,2.2,0,0,0-2.42-2.46,5.31,5.31,0,0,0-2.77.79l-.44-1.28a6.61,6.61,0,0,1,3.5-.95c3.26,0,4,2.22,4,4.36v4a14.92,14.92,0,0,0,.18,2.55Zm-.29-5.43c-2.11,0-4.51.33-4.51,2.4a1.71,1.71,0,0,0,1.83,1.85,2.65,2.65,0,0,0,2.58-1.78,2,2,0,0,0,.11-.62Z"/><path class="cls-1" d="M758.29,201.29v3.06h2.77v1.47h-2.77v5.74c0,1.32.37,2.07,1.45,2.07a4.34,4.34,0,0,0,1.12-.13L761,215a4.75,4.75,0,0,1-1.72.26,2.68,2.68,0,0,1-2.09-.81,3.94,3.94,0,0,1-.75-2.77v-5.81h-1.65v-1.47h1.65V201.8Z"/><path class="cls-1" d="M772.74,209.59c0,3.94-2.73,5.66-5.3,5.66-2.88,0-5.1-2.11-5.1-5.48,0-3.56,2.33-5.65,5.28-5.65S772.74,206.33,772.74,209.59Zm-8.45.11c0,2.33,1.34,4.09,3.24,4.09s3.23-1.74,3.23-4.14c0-1.8-.9-4.09-3.19-4.09S764.29,207.67,764.29,209.7Z"/><path class="cls-1" d="M775.18,207.67c0-1.25,0-2.33-.09-3.32h1.69l.07,2.09h.09a3.2,3.2,0,0,1,2.95-2.33,2.1,2.1,0,0,1,.55.07V206a2.92,2.92,0,0,0-.66-.07,2.72,2.72,0,0,0-2.6,2.49,5.46,5.46,0,0,0-.09.9V215h-1.91Z"/><path class="cls-1" d="M785.48,199.93a25.39,25.39,0,0,1-2.07,5.21l-1.23.15a31,31,0,0,0,1.3-5.17Z"/><path class="cls-1" d="M785.74,213a5.08,5.08,0,0,0,2.55.77c1.41,0,2.07-.7,2.07-1.58s-.55-1.43-2-2c-1.91-.68-2.82-1.74-2.82-3,0-1.72,1.39-3.12,3.67-3.12a5.31,5.31,0,0,1,2.62.66l-.48,1.41a4.14,4.14,0,0,0-2.18-.62c-1.14,0-1.78.66-1.78,1.45s.64,1.28,2,1.8c1.85.7,2.79,1.63,2.79,3.21,0,1.87-1.45,3.19-4,3.19a6.08,6.08,0,0,1-3-.73Z"/><path class="cls-1" d="M801.72,201.29v3.06h2.77v1.47h-2.77v5.74c0,1.32.37,2.07,1.45,2.07a4.34,4.34,0,0,0,1.12-.13l.09,1.45a4.75,4.75,0,0,1-1.72.26,2.68,2.68,0,0,1-2.09-.81,3.94,3.94,0,0,1-.75-2.77v-5.81h-1.65v-1.47h1.65V201.8Z"/><path class="cls-1" d="M806.67,207.67c0-1.25,0-2.33-.09-3.32h1.69l.07,2.09h.09a3.2,3.2,0,0,1,2.95-2.33,2.1,2.1,0,0,1,.55.07V206a2.92,2.92,0,0,0-.66-.07,2.72,2.72,0,0,0-2.6,2.49,5.46,5.46,0,0,0-.09.9V215h-1.91Z"/><path class="cls-1" d="M816.11,201.36a1.2,1.2,0,0,1-2.4,0,1.18,1.18,0,0,1,1.21-1.21A1.15,1.15,0,0,1,816.11,201.36ZM813.95,215V204.35h1.94V215Z"/><path class="cls-1" d="M825,215l-.15-1.34h-.07a4,4,0,0,1-3.26,1.58,3,3,0,0,1-3.26-3.06c0-2.57,2.29-4,6.4-4V208a2.2,2.2,0,0,0-2.42-2.46,5.31,5.31,0,0,0-2.77.79l-.44-1.28a6.61,6.61,0,0,1,3.5-.95c3.26,0,4,2.22,4,4.36v4a14.92,14.92,0,0,0,.18,2.55Zm-.29-5.43c-2.11,0-4.51.33-4.51,2.4a1.71,1.71,0,0,0,1.83,1.85A2.65,2.65,0,0,0,824.6,212a2,2,0,0,0,.11-.62Z"/><path class="cls-1" d="M829.7,207.23c0-1.1,0-2-.09-2.88h1.72l.11,1.76h0a3.92,3.92,0,0,1,3.52-2c1.47,0,3.76.88,3.76,4.53V215h-1.94v-6.14c0-1.72-.64-3.15-2.46-3.15a2.75,2.75,0,0,0-2.6,2,2.79,2.79,0,0,0-.13.9V215H829.7Z"/><path class="cls-1" d="M851.08,204.35c0,.77-.09,1.63-.09,2.93v6.18c0,2.44-.48,3.94-1.52,4.86a5.65,5.65,0,0,1-3.87,1.28,6.88,6.88,0,0,1-3.54-.88l.48-1.47a6,6,0,0,0,3.13.84c2,0,3.43-1,3.43-3.72v-1.19h0a3.8,3.8,0,0,1-3.39,1.78c-2.64,0-4.53-2.24-4.53-5.19,0-3.61,2.35-5.65,4.8-5.65a3.54,3.54,0,0,1,3.32,1.85h0l.09-1.61Zm-2,4.2a2.76,2.76,0,0,0-.11-.88,2.79,2.79,0,0,0-2.71-2c-1.85,0-3.17,1.56-3.17,4,0,2.09,1.06,3.83,3.15,3.83a2.83,2.83,0,0,0,2.68-2,3.36,3.36,0,0,0,.15-1Z"/><path class="cls-1" d="M854.21,199.38h1.94V215h-1.94Z"/><path class="cls-1" d="M860.48,210a3.41,3.41,0,0,0,3.65,3.7,7,7,0,0,0,2.95-.55l.33,1.39a8.61,8.61,0,0,1-3.54.66c-3.28,0-5.24-2.16-5.24-5.37s1.89-5.74,5-5.74c3.48,0,4.4,3.06,4.4,5a7.21,7.21,0,0,1-.07.9Zm5.68-1.39c0-1.23-.51-3.15-2.68-3.15-2,0-2.82,1.8-3,3.15Z"/><path class="cls-1" d="M706.32,233.17V248h-1.92V233.17Z"/><path class="cls-1" d="M709.82,240.23c0-1.1,0-2-.09-2.88h1.72l.11,1.76h0a3.92,3.92,0,0,1,3.52-2c1.47,0,3.76.88,3.76,4.53V248h-1.94v-6.14c0-1.72-.64-3.15-2.46-3.15a2.75,2.75,0,0,0-2.6,2,2.79,2.79,0,0,0-.13.9V248h-1.94Z"/><path class="cls-1" d="M731.23,232.38v12.87c0,.95,0,2,.09,2.75h-1.74l-.09-1.85h0a3.94,3.94,0,0,1-3.63,2.09c-2.57,0-4.55-2.18-4.55-5.41,0-3.54,2.18-5.72,4.77-5.72a3.56,3.56,0,0,1,3.21,1.63h0v-6.36Zm-1.94,9.31a3.39,3.39,0,0,0-.09-.81,2.85,2.85,0,0,0-2.79-2.25c-2,0-3.19,1.76-3.19,4.12,0,2.16,1.06,3.94,3.15,3.94a2.91,2.91,0,0,0,2.84-2.31,3.34,3.34,0,0,0,.09-.84Z"/><path class="cls-1" d="M736.59,234.36a1.2,1.2,0,0,1-2.4,0,1.18,1.18,0,0,1,1.21-1.21A1.15,1.15,0,0,1,736.59,234.36ZM734.44,248V237.35h1.94V248Z"/><path class="cls-1" d="M747.18,247.6a7.12,7.12,0,0,1-3.06.62,5.06,5.06,0,0,1-5.3-5.43,5.41,5.41,0,0,1,5.72-5.66,6.46,6.46,0,0,1,2.68.55l-.44,1.5a4.49,4.49,0,0,0-2.25-.51c-2.44,0-3.76,1.8-3.76,4a3.65,3.65,0,0,0,3.7,4,5.5,5.5,0,0,0,2.38-.53Z"/><path class="cls-1" d="M755.34,248l-.15-1.34h-.07a4,4,0,0,1-3.26,1.58,3,3,0,0,1-3.26-3.06c0-2.57,2.29-4,6.4-4V241a2.2,2.2,0,0,0-2.42-2.46,5.31,5.31,0,0,0-2.77.79l-.44-1.28a6.61,6.61,0,0,1,3.5-.95c3.26,0,4,2.22,4,4.36v4a14.92,14.92,0,0,0,.18,2.55Zm-.29-5.43c-2.11,0-4.51.33-4.51,2.4a1.71,1.71,0,0,0,1.83,1.85,2.65,2.65,0,0,0,2.58-1.78,2,2,0,0,0,.11-.62Z"/><path class="cls-1" d="M762.29,234.29v3.06h2.77v1.47h-2.77v5.74c0,1.32.37,2.07,1.45,2.07a4.34,4.34,0,0,0,1.12-.13L765,248a4.75,4.75,0,0,1-1.72.26,2.68,2.68,0,0,1-2.09-.81,3.94,3.94,0,0,1-.75-2.77v-5.81h-1.65v-1.47h1.65V234.8Z"/><path class="cls-1" d="M776.74,242.59c0,3.94-2.73,5.66-5.3,5.66-2.88,0-5.1-2.11-5.1-5.48,0-3.56,2.33-5.65,5.28-5.65S776.74,239.33,776.74,242.59Zm-8.45.11c0,2.33,1.34,4.09,3.24,4.09s3.23-1.74,3.23-4.14c0-1.8-.9-4.09-3.19-4.09S768.29,240.67,768.29,242.7Z"/><path class="cls-1" d="M779.19,240.67c0-1.25,0-2.33-.09-3.32h1.69l.07,2.09h.09a3.2,3.2,0,0,1,2.95-2.33,2.1,2.1,0,0,1,.55.07V239a2.92,2.92,0,0,0-.66-.07,2.72,2.72,0,0,0-2.6,2.49,5.46,5.46,0,0,0-.09.9V248h-1.91Z"/><path class="cls-1" d="M789.48,232.93a25.39,25.39,0,0,1-2.07,5.21l-1.23.15a31,31,0,0,0,1.3-5.17Z"/><path class="cls-1" d="M789.75,246a5.08,5.08,0,0,0,2.55.77c1.41,0,2.07-.7,2.07-1.58s-.55-1.43-2-2c-1.91-.68-2.82-1.74-2.82-3,0-1.72,1.39-3.12,3.67-3.12a5.31,5.31,0,0,1,2.62.66l-.48,1.41a4.14,4.14,0,0,0-2.18-.62c-1.14,0-1.78.66-1.78,1.45s.64,1.28,2,1.8c1.85.7,2.79,1.63,2.79,3.21,0,1.87-1.45,3.19-4,3.19a6.08,6.08,0,0,1-3-.73Z"/><path class="cls-1" d="M803.39,240.23c0-1.1,0-2-.09-2.88H805l.11,1.76h0a3.92,3.92,0,0,1,3.52-2c1.47,0,3.76.88,3.76,4.53V248h-1.94v-6.14c0-1.72-.64-3.15-2.46-3.15a2.75,2.75,0,0,0-2.6,2,2.79,2.79,0,0,0-.13.9V248h-1.94Z"/><path class="cls-1" d="M816.67,243a3.41,3.41,0,0,0,3.65,3.7,7,7,0,0,0,2.95-.55l.33,1.39a8.61,8.61,0,0,1-3.54.66c-3.28,0-5.24-2.16-5.24-5.37s1.89-5.74,5-5.74c3.48,0,4.4,3.06,4.4,5a7.21,7.21,0,0,1-.07.9Zm5.68-1.39c0-1.23-.51-3.15-2.68-3.15-2,0-2.82,1.8-3,3.15Z"/><path class="cls-1" d="M827.7,243a3.41,3.41,0,0,0,3.65,3.7,7,7,0,0,0,2.95-.55l.33,1.39a8.61,8.61,0,0,1-3.54.66c-3.28,0-5.24-2.16-5.24-5.37s1.89-5.74,5-5.74c3.48,0,4.4,3.06,4.4,5a7.21,7.21,0,0,1-.07.9Zm5.68-1.39c0-1.23-.51-3.15-2.68-3.15-2,0-2.82,1.8-3,3.15Z"/><path class="cls-1" d="M846.84,232.38v12.87c0,.95,0,2,.09,2.75h-1.74l-.09-1.85h0a3.94,3.94,0,0,1-3.63,2.09c-2.57,0-4.55-2.18-4.55-5.41,0-3.54,2.18-5.72,4.77-5.72a3.56,3.56,0,0,1,3.21,1.63h0v-6.36Zm-1.94,9.31a3.39,3.39,0,0,0-.09-.81,2.85,2.85,0,0,0-2.79-2.25c-2,0-3.19,1.76-3.19,4.12,0,2.16,1.06,3.94,3.15,3.94a2.91,2.91,0,0,0,2.84-2.31,3.34,3.34,0,0,0,.09-.84Z"/><path class="cls-1" d="M850,232.38H852V248H850Z"/><path class="cls-1" d="M856.32,243a3.41,3.41,0,0,0,3.65,3.7,7,7,0,0,0,2.95-.55l.33,1.39a8.61,8.61,0,0,1-3.54.66c-3.28,0-5.24-2.16-5.24-5.37s1.89-5.74,5-5.74c3.48,0,4.4,3.06,4.4,5a7.21,7.21,0,0,1-.07.9Zm5.68-1.39c0-1.23-.51-3.15-2.68-3.15-2,0-2.82,1.8-3,3.15Z"/><line class="cls-2" x1="158" y1="274" x2="108.77" y2="224.77"/><polygon class="cls-3" points="113.05 223.96 101 217 107.96 229.05 113.05 223.96"/><line class="cls-2" x1="514.58" y1="274.75" x2="326.92" y2="238.31"/><polygon class="cls-3" points="330.02 235.24 316.13 236.21 328.64 242.31 330.02 235.24"/><line class="cls-2" x1="490.47" y1="236.87" x2="359.29" y2="187.85"/><polygon class="cls-3" points="362.85 185.33 349 184 360.33 192.08 362.85 185.33"/><line class="cls-2" x1="490.47" y1="180.63" x2="365.8" y2="117.46"/><polygon class="cls-3" points="369.62 115.36 356 112.5 366.36 121.79 369.62 115.36"/><line class="cls-2" x1="223.73" y1="331" x2="140.72" y2="392.46"/><polygon class="cls-3" points="140.55 388.11 131.89 399 144.84 393.9 140.55 388.11"/><line class="cls-2" x1="263" y1="363" x2="307.23" y2="407.23"/><polygon class="cls-3" points="302.95 408.04 315 415 308.04 402.95 302.95 408.04"/><path class="cls-1" d="M48.67,191.37a18.58,18.58,0,0,1,3.5-.31,6.13,6.13,0,0,1,4.07,1.08,3.11,3.11,0,0,1,1.23,2.62A3.52,3.52,0,0,1,55,198v0A3.82,3.82,0,0,1,58,201.78a4,4,0,0,1-1.25,3c-1,.95-2.71,1.39-5.13,1.39a22.41,22.41,0,0,1-3-.18Zm1.91,6.07h1.74c2,0,3.21-1.06,3.21-2.49,0-1.74-1.32-2.42-3.26-2.42a8.19,8.19,0,0,0-1.69.13Zm0,7.11a10.19,10.19,0,0,0,1.61.09c2,0,3.81-.73,3.81-2.88s-1.74-2.86-3.83-2.86H50.59Z"/><path class="cls-1" d="M70.26,200.59c0,3.94-2.73,5.66-5.3,5.66-2.88,0-5.1-2.11-5.1-5.48,0-3.56,2.33-5.66,5.28-5.66S70.26,197.33,70.26,200.59Zm-8.45.11c0,2.33,1.34,4.09,3.23,4.09s3.23-1.74,3.23-4.14c0-1.8-.9-4.09-3.19-4.09S61.81,198.67,61.81,200.7Z"/><path class="cls-1" d="M72.7,198.67c0-1.25,0-2.33-.09-3.32H74.3l.07,2.09h.09a3.19,3.19,0,0,1,2.95-2.33,2.1,2.1,0,0,1,.55.07V197a2.91,2.91,0,0,0-.66-.07,2.72,2.72,0,0,0-2.6,2.49,5.47,5.47,0,0,0-.09.9V206H72.7Z"/><path class="cls-1" d="M88.87,190.38v12.87c0,.95,0,2,.09,2.75H87.22l-.09-1.85h0a3.94,3.94,0,0,1-3.63,2.09c-2.57,0-4.55-2.18-4.55-5.41,0-3.54,2.18-5.72,4.77-5.72a3.56,3.56,0,0,1,3.21,1.63h0v-6.36Zm-1.94,9.31a3.43,3.43,0,0,0-.09-.81A2.85,2.85,0,0,0,84,196.63c-2,0-3.19,1.76-3.19,4.11,0,2.16,1.06,3.94,3.15,3.94a2.91,2.91,0,0,0,2.84-2.31,3.36,3.36,0,0,0,.09-.84Z"/><path class="cls-1" d="M93.16,201a3.41,3.41,0,0,0,3.65,3.7,7,7,0,0,0,2.95-.55l.33,1.39a8.62,8.62,0,0,1-3.54.66c-3.28,0-5.24-2.16-5.24-5.37s1.89-5.74,5-5.74c3.48,0,4.4,3.06,4.4,5a7.31,7.31,0,0,1-.07.9Zm5.68-1.39c0-1.23-.51-3.15-2.68-3.15-2,0-2.82,1.8-3,3.15Z"/><path class="cls-1" d="M103.1,198.67c0-1.25,0-2.33-.09-3.32h1.69l.07,2.09h.09a3.19,3.19,0,0,1,2.95-2.33,2.09,2.09,0,0,1,.55.07V197a2.91,2.91,0,0,0-.66-.07,2.72,2.72,0,0,0-2.6,2.49,5.47,5.47,0,0,0-.09.9V206H103.1Z"/><line class="cls-2" x1="820" y1="319.33" x2="909.38" y2="412.09"/><polygon class="cls-3" points="905.08 412.82 917 420 910.27 407.82 905.08 412.82"/><line class="cls-2" x1="876" y1="312.67" x2="933.47" y2="371.16"/><polygon class="cls-3" points="929.18 371.94 941.17 379 934.32 366.89 929.18 371.94"/><path class="cls-1" d="M878.83,430.63a27.32,27.32,0,0,1,4.07-.31c2.75,0,4.71.64,6,1.85a6.83,6.83,0,0,1,2.09,5.32,7.84,7.84,0,0,1-2.13,5.77c-1.39,1.39-3.67,2.13-6.56,2.13a30.82,30.82,0,0,1-3.48-.18Zm1.91,13.11a12.1,12.1,0,0,0,1.94.11c4.09,0,6.32-2.29,6.32-6.29,0-3.5-2-5.72-6-5.72a10.85,10.85,0,0,0-2.24.2Z"/><path class="cls-1" d="M895.58,431.62a1.2,1.2,0,0,1-2.4,0,1.18,1.18,0,0,1,1.21-1.21A1.15,1.15,0,0,1,895.58,431.62Zm-2.16,13.64V434.61h1.94v10.65Z"/><path class="cls-1" d="M899.32,434.61l2.09,6a27.5,27.5,0,0,1,.86,2.73h.07c.24-.88.55-1.76.9-2.73l2.07-6h2l-4.18,10.65H901.3l-4-10.65Z"/><path class="cls-1" d="M911.31,431.62a1.2,1.2,0,0,1-2.4,0,1.18,1.18,0,0,1,1.21-1.21A1.15,1.15,0,0,1,911.31,431.62Zm-2.16,13.64V434.61h1.94v10.65Z"/><path class="cls-1" d="M914,443.28a5.07,5.07,0,0,0,2.55.77c1.41,0,2.07-.7,2.07-1.58s-.55-1.43-2-2c-1.91-.68-2.82-1.74-2.82-3,0-1.72,1.39-3.12,3.67-3.12a5.32,5.32,0,0,1,2.62.66l-.48,1.41a4.15,4.15,0,0,0-2.18-.62c-1.14,0-1.78.66-1.78,1.45s.64,1.28,2,1.8c1.85.7,2.79,1.63,2.79,3.21,0,1.87-1.45,3.19-4,3.19a6.08,6.08,0,0,1-3-.73Z"/><path class="cls-1" d="M925.17,431.62a1.2,1.2,0,0,1-2.4,0,1.18,1.18,0,0,1,1.21-1.21A1.15,1.15,0,0,1,925.17,431.62ZM923,445.26V434.61h1.94v10.65Z"/><path class="cls-1" d="M937.79,439.84c0,3.94-2.73,5.66-5.3,5.66-2.88,0-5.11-2.11-5.11-5.48,0-3.56,2.33-5.66,5.28-5.66S937.79,436.59,937.79,439.84Zm-8.45.11c0,2.33,1.34,4.09,3.23,4.09s3.23-1.74,3.23-4.14c0-1.8-.9-4.09-3.19-4.09S929.35,437.93,929.35,440Z"/><path class="cls-1" d="M940.24,437.49c0-1.1,0-2-.09-2.88h1.72l.11,1.76h0a3.92,3.92,0,0,1,3.52-2c1.47,0,3.76.88,3.76,4.53v6.36h-1.94v-6.14c0-1.72-.64-3.15-2.46-3.15a2.75,2.75,0,0,0-2.6,2,2.78,2.78,0,0,0-.13.9v6.4h-1.94Z"/><path class="cls-1" d="M896.29,454.43h1.91v13.22h6.34v1.61h-8.25Z"/><path class="cls-1" d="M908.77,455.62a1.2,1.2,0,0,1-2.4,0,1.18,1.18,0,0,1,1.21-1.21A1.15,1.15,0,0,1,908.77,455.62Zm-2.16,13.64V458.61h1.94v10.65Z"/><path class="cls-1" d="M911.76,461.49c0-1.1,0-2-.09-2.88h1.72l.11,1.76h0a3.92,3.92,0,0,1,3.52-2c1.47,0,3.76.88,3.76,4.53v6.36h-1.94v-6.14c0-1.72-.64-3.15-2.46-3.15a2.75,2.75,0,0,0-2.6,2,2.78,2.78,0,0,0-.13.9v6.4h-1.94Z"/><path class="cls-1" d="M925,464.29a3.41,3.41,0,0,0,3.65,3.7,7,7,0,0,0,2.95-.55l.33,1.39a8.62,8.62,0,0,1-3.54.66c-3.28,0-5.24-2.16-5.24-5.37s1.89-5.74,5-5.74c3.48,0,4.4,3.06,4.4,5a7.2,7.2,0,0,1-.07.9Zm5.68-1.39c0-1.23-.51-3.15-2.68-3.15-2,0-2.82,1.8-3,3.15Z"/><path class="cls-1" d="M935.21,401.67a6.79,6.79,0,0,0,3.43,1c2,0,3.1-1,3.1-2.53s-.79-2.18-2.79-2.95C936.53,396.3,935,395,935,393c0-2.31,1.92-4,4.8-4a6.73,6.73,0,0,1,3.28.73l-.53,1.56a5.91,5.91,0,0,0-2.82-.7c-2,0-2.79,1.21-2.79,2.22,0,1.39.9,2.07,2.95,2.86,2.51,1,3.79,2.18,3.79,4.36s-1.69,4.27-5.19,4.27a7.66,7.66,0,0,1-3.78-.95Z"/><path class="cls-1" d="M955.17,401.1c0,1.1,0,2.07.09,2.9h-1.72l-.11-1.74h0a4,4,0,0,1-3.52,2c-1.67,0-3.67-.92-3.67-4.67v-6.23h1.94v5.9c0,2,.62,3.39,2.38,3.39a2.8,2.8,0,0,0,2.55-1.76,2.85,2.85,0,0,0,.18-1v-6.54h1.94Z"/><path class="cls-1" d="M958.29,404c0-.73.09-1.8.09-2.75V388.38h1.91v6.69h0a4,4,0,0,1,3.63-2c2.64,0,4.51,2.2,4.49,5.43,0,3.81-2.4,5.7-4.77,5.7a3.79,3.79,0,0,1-3.57-2H960L960,404Zm2-4.27a3.63,3.63,0,0,0,.09.7,3,3,0,0,0,2.9,2.27c2,0,3.23-1.65,3.23-4.09,0-2.13-1.1-4-3.17-4A3.09,3.09,0,0,0,960.4,397a3.81,3.81,0,0,0-.11.79Z"/><path class="cls-1" d="M975.71,397.33v1.43h-5.43v-1.43Z"/><path class="cls-1" d="M987.57,388.38v12.87c0,.95,0,2,.09,2.75h-1.74l-.09-1.85h0a3.94,3.94,0,0,1-3.63,2.09c-2.57,0-4.55-2.18-4.55-5.41,0-3.54,2.18-5.72,4.77-5.72a3.56,3.56,0,0,1,3.21,1.63h0v-6.36Zm-1.94,9.31a3.45,3.45,0,0,0-.09-.81,2.85,2.85,0,0,0-2.79-2.24c-2,0-3.19,1.76-3.19,4.11,0,2.16,1.06,3.94,3.15,3.94a2.91,2.91,0,0,0,2.84-2.31,3.38,3.38,0,0,0,.09-.84Z"/><path class="cls-1" d="M992.94,390.36a1.2,1.2,0,0,1-2.4,0,1.18,1.18,0,0,1,1.21-1.21A1.15,1.15,0,0,1,992.94,390.36ZM990.78,404V393.35h1.94V404Z"/><path class="cls-1" d="M996.68,393.35l2.09,6a27.51,27.51,0,0,1,.86,2.73h.07c.24-.88.55-1.76.9-2.73l2.07-6h2L1000.5,404h-1.85l-4-10.65Z"/><path class="cls-1" d="M1008.67,390.36a1.2,1.2,0,0,1-2.4,0,1.18,1.18,0,0,1,1.21-1.21A1.15,1.15,0,0,1,1008.67,390.36ZM1006.51,404V393.35h1.94V404Z"/><path class="cls-1" d="M1011.39,402a5.07,5.07,0,0,0,2.55.77c1.41,0,2.07-.7,2.07-1.58s-.55-1.43-2-2c-1.91-.68-2.82-1.74-2.82-3,0-1.72,1.39-3.12,3.67-3.12a5.31,5.31,0,0,1,2.62.66l-.48,1.41a4.15,4.15,0,0,0-2.18-.62c-1.14,0-1.78.66-1.78,1.45s.64,1.28,2,1.8c1.85.7,2.79,1.63,2.79,3.21,0,1.87-1.45,3.19-4,3.19a6.09,6.09,0,0,1-3-.73Z"/><path class="cls-1" d="M1022.53,390.36a1.2,1.2,0,0,1-2.4,0,1.18,1.18,0,0,1,1.21-1.21A1.15,1.15,0,0,1,1022.53,390.36ZM1020.37,404V393.35h1.94V404Z"/><path class="cls-1" d="M1035.16,398.59c0,3.94-2.73,5.66-5.3,5.66-2.88,0-5.11-2.11-5.11-5.48,0-3.56,2.33-5.66,5.28-5.66S1035.16,395.33,1035.16,398.59Zm-8.45.11c0,2.33,1.34,4.09,3.23,4.09s3.23-1.74,3.23-4.14c0-1.8-.9-4.09-3.19-4.09S1026.71,396.67,1026.71,398.7Z"/><path class="cls-1" d="M1037.6,396.23c0-1.1,0-2-.09-2.88h1.72l.11,1.76h0a3.92,3.92,0,0,1,3.52-2c1.47,0,3.76.88,3.76,4.53V404h-1.94v-6.14c0-1.72-.64-3.15-2.46-3.15a2.75,2.75,0,0,0-2.6,2,2.78,2.78,0,0,0-.13.9V404h-1.94Z"/><path class="cls-1" d="M973.29,413.17h1.91v13.22h6.34V428h-8.25Z"/><path class="cls-1" d="M985.77,414.36a1.2,1.2,0,0,1-2.4,0,1.18,1.18,0,0,1,1.21-1.21A1.15,1.15,0,0,1,985.77,414.36ZM983.61,428V417.35h1.94V428Z"/><path class="cls-1" d="M988.76,420.23c0-1.1,0-2-.09-2.88h1.72l.11,1.76h0a3.92,3.92,0,0,1,3.52-2c1.47,0,3.76.88,3.76,4.53V428h-1.94v-6.14c0-1.72-.64-3.15-2.46-3.15a2.75,2.75,0,0,0-2.6,2,2.78,2.78,0,0,0-.13.9V428h-1.94Z"/><path class="cls-1" d="M1002,423a3.41,3.41,0,0,0,3.65,3.7,7,7,0,0,0,2.95-.55l.33,1.39a8.61,8.61,0,0,1-3.54.66c-3.28,0-5.24-2.16-5.24-5.37s1.89-5.74,5-5.74c3.48,0,4.4,3.06,4.4,5a7.43,7.43,0,0,1-.07.9Zm5.68-1.39c0-1.23-.51-3.15-2.68-3.15-2,0-2.82,1.8-3,3.15Z"/><polyline class="cls-4" points="120 322 120 285 961 285 961 322"/><line class="cls-5" x1="148" y1="285" x2="148" y2="310"/><line class="cls-5" x1="176" y1="285" x2="176" y2="310"/><line class="cls-5" x1="204" y1="285" x2="204" y2="310"/><line class="cls-5" x1="232" y1="285" x2="232" y2="310"/><line class="cls-6" x1="260" y1="285" x2="260" y2="319.33"/><line class="cls-5" x1="288" y1="285" x2="288" y2="310"/><line class="cls-5" x1="316" y1="285" x2="316" y2="310"/><line class="cls-5" x1="344" y1="285" x2="344" y2="310"/><line class="cls-5" x1="372" y1="285" x2="372" y2="310"/><line class="cls-5" x1="400" y1="285" x2="400" y2="310"/><line class="cls-5" x1="428" y1="285" x2="428" y2="310"/><line class="cls-5" x1="456" y1="285" x2="456" y2="310"/><line class="cls-5" x1="484" y1="285" x2="484" y2="310"/><line class="cls-5" x1="512" y1="285" x2="512" y2="310"/><line class="cls-6" x1="540" y1="285" x2="540" y2="319.33"/><line class="cls-5" x1="568" y1="285" x2="568" y2="310"/><line class="cls-5" x1="596" y1="285" x2="596" y2="310"/><line class="cls-5" x1="624" y1="285" x2="624" y2="310"/><line class="cls-5" x1="652" y1="285" x2="652" y2="310"/><line class="cls-5" x1="680" y1="285" x2="680" y2="310"/><line class="cls-5" x1="708" y1="285" x2="708" y2="310"/><line class="cls-5" x1="736" y1="285" x2="736" y2="310"/><line class="cls-5" x1="764" y1="285" x2="764" y2="310"/><line class="cls-5" x1="792" y1="285" x2="792" y2="310"/><line class="cls-6" x1="820" y1="285" x2="820" y2="319.33"/><line class="cls-5" x1="848" y1="285" x2="848" y2="310"/><line class="cls-5" x1="876" y1="285" x2="876" y2="310"/><line class="cls-5" x1="904" y1="285" x2="904" y2="310"/><line class="cls-5" x1="932" y1="285" x2="932" y2="310"/><polygon class="cls-7" points="540.21 272.48 554.92 258.26 525.5 258.26 540.21 272.48"/><line class="cls-8" x1="540" y1="319.33" x2="540" y2="267.5"/><path d="M535.66,141.85h-11.9l-1.2,8a16.73,16.73,0,0,1,2.54-.19,13.18,13.18,0,0,1,6.72,1.68,8.89,8.89,0,0,1,4.46,8c0,6.1-4.85,10.66-11.62,10.66a15.28,15.28,0,0,1-7.78-1.92l1.06-3.22a14,14,0,0,0,6.67,1.73c4,0,7.39-2.59,7.39-6.77s-2.74-6.91-9-6.91a32.28,32.28,0,0,0-4.32.34l2-15h14.93Z"/><path d="M562.4,153.56c0,10.61-3.94,16.47-10.85,16.47-6.1,0-10.22-5.71-10.32-16s4.51-16.23,10.85-16.23C558.65,137.77,562.4,143.63,562.4,153.56Zm-16.95.48c0,8.11,2.5,12.72,6.34,12.72,4.32,0,6.38-5,6.38-13,0-7.68-2-12.72-6.34-12.72C548.14,141,545.45,145.55,545.45,154Z"/><path d="M529.8,214.14a15.56,15.56,0,0,1-6.67,1.34c-7,0-11.57-4.75-11.57-11.86s4.9-12.34,12.48-12.34a14.12,14.12,0,0,1,5.86,1.2l-1,3.26a9.8,9.8,0,0,0-4.9-1.1c-5.33,0-8.21,3.94-8.21,8.78,0,5.38,3.46,8.69,8.06,8.69a12,12,0,0,0,5.18-1.15Z"/><path d="M534.74,198.05c0-2.4,0-4.37-.19-6.29h3.7l.19,3.75h.14a8,8,0,0,1,7.3-4.27,6.87,6.87,0,0,1,6.58,4.66h.1a9.57,9.57,0,0,1,2.59-3,7.93,7.93,0,0,1,5.14-1.63c3.07,0,7.63,2,7.63,10.08V215h-4.13V201.85c0-4.46-1.63-7.15-5-7.15a5.47,5.47,0,0,0-5,3.84,7,7,0,0,0-.34,2.11V215h-4.13V201.08c0-3.7-1.63-6.38-4.85-6.38a6.3,6.3,0,0,0-5.57,6.29v14h-4.13Z"/><path d="M253.73,361v-5.66h-9.66v-1.86l9.28-13.28h3v12.93h2.91v2.21h-2.91V361Zm0-7.87v-6.94q0-1.63.1-3.26h-.1c-.64,1.22-1.15,2.11-1.73,3.07l-5.09,7.07v.06Z"/><path d="M275.26,350.38c0,7.07-2.62,11-7.23,11-4.06,0-6.82-3.81-6.88-10.69s3-10.82,7.23-10.82C272.77,339.85,275.26,343.75,275.26,350.38ZM264,350.7c0,5.41,1.66,8.48,4.22,8.48,2.88,0,4.26-3.36,4.26-8.67,0-5.12-1.31-8.48-4.22-8.48C265.76,342,264,345,264,350.7Z"/><path d="M536.94,342.57H529l-.8,5.34a11.06,11.06,0,0,1,1.7-.13,8.79,8.79,0,0,1,4.48,1.12,5.93,5.93,0,0,1,3,5.34c0,4.06-3.23,7.1-7.74,7.1a10.19,10.19,0,0,1-5.18-1.28l.7-2.14a9.32,9.32,0,0,0,4.45,1.15c2.66,0,4.93-1.73,4.93-4.51s-1.82-4.61-6-4.61a21.56,21.56,0,0,0-2.88.22l1.34-10h10Z"/><path d="M554.76,350.38c0,7.07-2.62,11-7.23,11-4.06,0-6.82-3.81-6.88-10.69s3-10.82,7.23-10.82C552.27,339.85,554.76,343.75,554.76,350.38Zm-11.29.32c0,5.41,1.66,8.48,4.22,8.48,2.88,0,4.26-3.36,4.26-8.67,0-5.12-1.31-8.48-4.22-8.48C545.26,342,543.47,345,543.47,350.7Z"/><path d="M816.9,342.19a10.15,10.15,0,0,0-2.11.13,8.45,8.45,0,0,0-7.23,7.39h.1a6.2,6.2,0,0,1,5-2.4c3.68,0,6.27,2.66,6.27,6.72,0,3.81-2.59,7.33-6.91,7.33s-7.36-3.46-7.36-8.86a13.08,13.08,0,0,1,3.52-9.37,11.31,11.31,0,0,1,6.66-3.07,13.41,13.41,0,0,1,2-.16Zm-.8,12c0-3-1.7-4.77-4.29-4.77a4.63,4.63,0,0,0-4,2.56,2.39,2.39,0,0,0-.32,1.25c.06,3.42,1.63,6,4.58,6C814.46,359.18,816.1,357.16,816.1,354.18Z"/><path d="M835.26,350.38c0,7.07-2.62,11-7.23,11-4.06,0-6.82-3.81-6.88-10.69s3-10.82,7.23-10.82C832.77,339.85,835.26,343.75,835.26,350.38ZM824,350.7c0,5.41,1.66,8.48,4.22,8.48,2.88,0,4.26-3.36,4.26-8.67,0-5.12-1.31-8.48-4.22-8.48C825.76,342,824,345,824,350.7Z"/><polyline class="cls-2" points="263 322 223.73 322 223.73 339.33 263 339.33"/><path class="cls-1" d="M91.91,410.87a27.31,27.31,0,0,1,4.07-.31c2.75,0,4.71.64,6,1.85a6.83,6.83,0,0,1,2.09,5.32,7.84,7.84,0,0,1-2.13,5.77c-1.39,1.39-3.67,2.13-6.56,2.13a30.82,30.82,0,0,1-3.48-.18ZM93.83,424a12.1,12.1,0,0,0,1.94.11c4.09,0,6.31-2.29,6.31-6.29,0-3.5-2-5.72-6-5.72a10.85,10.85,0,0,0-2.24.2Z"/><path class="cls-1" d="M108.65,411.86a1.2,1.2,0,0,1-2.4,0,1.18,1.18,0,0,1,1.21-1.21A1.15,1.15,0,0,1,108.65,411.86ZM106.5,425.5V414.85h1.94V425.5Z"/><path class="cls-1" d="M112.39,414.85l2.09,6a27.5,27.5,0,0,1,.86,2.73h.07c.24-.88.55-1.76.9-2.73l2.07-6h2l-4.18,10.65h-1.85l-4-10.65Z"/><path class="cls-1" d="M124.38,411.86a1.2,1.2,0,0,1-2.4,0,1.18,1.18,0,0,1,1.21-1.21A1.15,1.15,0,0,1,124.38,411.86Zm-2.16,13.64V414.85h1.94V425.5Z"/><path class="cls-1" d="M127.11,423.52a5.07,5.07,0,0,0,2.55.77c1.41,0,2.07-.7,2.07-1.58s-.55-1.43-2-2c-1.91-.68-2.82-1.74-2.82-3,0-1.72,1.39-3.12,3.67-3.12a5.31,5.31,0,0,1,2.62.66l-.48,1.41a4.15,4.15,0,0,0-2.18-.62c-1.14,0-1.78.66-1.78,1.45s.64,1.28,2,1.8c1.85.7,2.79,1.63,2.79,3.21,0,1.87-1.45,3.19-4,3.19a6.08,6.08,0,0,1-3-.73Z"/><path class="cls-1" d="M138.24,411.86a1.2,1.2,0,0,1-2.4,0,1.18,1.18,0,0,1,1.21-1.21A1.15,1.15,0,0,1,138.24,411.86Zm-2.16,13.64V414.85H138V425.5Z"/><path class="cls-1" d="M150.87,420.09c0,3.94-2.73,5.66-5.3,5.66-2.88,0-5.1-2.11-5.1-5.48,0-3.56,2.33-5.66,5.28-5.66S150.87,416.83,150.87,420.09Zm-8.45.11c0,2.33,1.34,4.09,3.23,4.09s3.23-1.74,3.23-4.14c0-1.8-.9-4.09-3.19-4.09S142.42,418.17,142.42,420.2Z"/><path class="cls-1" d="M153.31,417.73c0-1.1,0-2-.09-2.88h1.72l.11,1.76h0a3.92,3.92,0,0,1,3.52-2c1.47,0,3.76.88,3.76,4.53v6.36h-1.94v-6.14c0-1.72-.64-3.15-2.46-3.15a2.75,2.75,0,0,0-2.6,2,2.78,2.78,0,0,0-.13.9v6.4h-1.94Z"/><path class="cls-1" d="M172.17,412.3h-4.51v-1.63h11v1.63H174.1v13.2h-1.94Z"/><path class="cls-1" d="M179.74,420.53a3.41,3.41,0,0,0,3.65,3.7,7,7,0,0,0,2.95-.55l.33,1.39a8.62,8.62,0,0,1-3.54.66c-3.28,0-5.24-2.16-5.24-5.37s1.89-5.74,5-5.74c3.48,0,4.4,3.06,4.4,5a7.31,7.31,0,0,1-.07.9Zm5.68-1.39c0-1.23-.51-3.15-2.68-3.15-2,0-2.82,1.8-3,3.15Z"/><path class="cls-1" d="M190.52,414.85l1.52,2.29c.4.59.73,1.14,1.08,1.74h.07c.35-.64.7-1.19,1.06-1.76l1.5-2.27h2.09L194.19,420l3.74,5.5h-2.2l-1.56-2.4c-.42-.62-.77-1.21-1.14-1.85h0c-.35.64-.73,1.21-1.12,1.85l-1.54,2.4h-2.13l3.78-5.43-3.61-5.21Z"/><path class="cls-1" d="M202.42,411.79v3.06h2.77v1.47h-2.77v5.74c0,1.32.37,2.07,1.45,2.07A4.34,4.34,0,0,0,205,424l.09,1.45a4.74,4.74,0,0,1-1.72.26,2.68,2.68,0,0,1-2.09-.81,4,4,0,0,1-.75-2.77v-5.81h-1.65v-1.47h1.65V412.3Z"/><path class="cls-1" d="M116.86,441.73c0-1.1,0-2-.09-2.88h1.69l.09,1.72h.07a3.67,3.67,0,0,1,3.34-2,3.15,3.15,0,0,1,3,2.13h0a4.38,4.38,0,0,1,1.19-1.39,3.63,3.63,0,0,1,2.35-.75c1.41,0,3.5.92,3.5,4.62v6.27h-1.89v-6c0-2-.75-3.28-2.31-3.28a2.51,2.51,0,0,0-2.29,1.76,3.19,3.19,0,0,0-.15,1v6.58h-1.89v-6.38c0-1.69-.75-2.93-2.22-2.93a2.89,2.89,0,0,0-2.55,2.88v6.42h-1.89Z"/><path class="cls-1" d="M141.1,449.5l-.15-1.34h-.07a4,4,0,0,1-3.26,1.58,3,3,0,0,1-3.26-3.06c0-2.57,2.29-4,6.4-4v-.22a2.19,2.19,0,0,0-2.42-2.46,5.3,5.3,0,0,0-2.77.79l-.44-1.28a6.61,6.61,0,0,1,3.5-.95c3.26,0,4,2.22,4,4.36v4a15,15,0,0,0,.18,2.55Zm-.29-5.43c-2.11,0-4.51.33-4.51,2.4a1.71,1.71,0,0,0,1.83,1.85,2.65,2.65,0,0,0,2.57-1.78,2,2,0,0,0,.11-.62Z"/><path class="cls-1" d="M145.81,442.17c0-1.25,0-2.33-.09-3.32h1.69l.07,2.09h.09a3.19,3.19,0,0,1,2.95-2.33,2.09,2.09,0,0,1,.55.07v1.83a2.91,2.91,0,0,0-.66-.07,2.72,2.72,0,0,0-2.6,2.49,5.47,5.47,0,0,0-.09.9v5.68h-1.91Z"/><path class="cls-1" d="M162,438.85c0,.77-.09,1.63-.09,2.93V448c0,2.44-.48,3.94-1.52,4.86a5.64,5.64,0,0,1-3.87,1.28,6.87,6.87,0,0,1-3.54-.88l.48-1.47a6,6,0,0,0,3.12.84c2,0,3.43-1,3.43-3.72v-1.19h0a3.8,3.8,0,0,1-3.39,1.78c-2.64,0-4.53-2.24-4.53-5.19,0-3.61,2.35-5.66,4.8-5.66a3.54,3.54,0,0,1,3.32,1.85h0l.09-1.61Zm-2,4.2a2.76,2.76,0,0,0-.11-.88,2.79,2.79,0,0,0-2.71-2c-1.85,0-3.17,1.56-3.17,4,0,2.09,1.06,3.83,3.15,3.83a2.83,2.83,0,0,0,2.68-2,3.36,3.36,0,0,0,.15-1Z"/><path class="cls-1" d="M167.15,435.86a1.2,1.2,0,0,1-2.4,0,1.18,1.18,0,0,1,1.21-1.21A1.15,1.15,0,0,1,167.15,435.86ZM165,449.5V438.85h1.94V449.5Z"/><path class="cls-1" d="M170.14,441.73c0-1.1,0-2-.09-2.88h1.72l.11,1.76h0a3.92,3.92,0,0,1,3.52-2c1.47,0,3.76.88,3.76,4.53v6.36h-1.94v-6.14c0-1.72-.64-3.15-2.46-3.15a2.75,2.75,0,0,0-2.6,2,2.78,2.78,0,0,0-.13.9v6.4h-1.94Z"/><path class="cls-1" d="M287.5,424a27.31,27.31,0,0,1,4.07-.31c2.75,0,4.71.64,6,1.85a6.83,6.83,0,0,1,2.09,5.32,7.84,7.84,0,0,1-2.13,5.77c-1.39,1.39-3.67,2.13-6.56,2.13a30.83,30.83,0,0,1-3.48-.18Zm1.91,13.11a12.1,12.1,0,0,0,1.94.11c4.09,0,6.31-2.29,6.31-6.29,0-3.5-2-5.72-6-5.72a10.85,10.85,0,0,0-2.24.2Z"/><path class="cls-1" d="M304.24,425a1.2,1.2,0,0,1-2.4,0,1.18,1.18,0,0,1,1.21-1.21A1.15,1.15,0,0,1,304.24,425Zm-2.16,13.64V428H304v10.65Z"/><path class="cls-1" d="M308,428l2.09,6a27.5,27.5,0,0,1,.86,2.73H311c.24-.88.55-1.76.9-2.73l2.07-6h2l-4.18,10.65H310l-4-10.65Z"/><path class="cls-1" d="M320,425a1.2,1.2,0,0,1-2.4,0,1.18,1.18,0,0,1,1.21-1.21A1.15,1.15,0,0,1,320,425Zm-2.16,13.64V428h1.94v10.65Z"/><path class="cls-1" d="M322.7,436.69a5.07,5.07,0,0,0,2.55.77c1.41,0,2.07-.7,2.07-1.58s-.55-1.43-2-2c-1.91-.68-2.82-1.74-2.82-3,0-1.72,1.39-3.12,3.67-3.12a5.31,5.31,0,0,1,2.62.66l-.48,1.41a4.15,4.15,0,0,0-2.18-.62c-1.14,0-1.78.66-1.78,1.45s.64,1.28,2,1.8c1.85.7,2.79,1.63,2.79,3.21,0,1.87-1.45,3.19-4,3.19a6.08,6.08,0,0,1-3-.73Z"/><path class="cls-1" d="M333.83,425a1.2,1.2,0,0,1-2.4,0,1.18,1.18,0,0,1,1.21-1.21A1.15,1.15,0,0,1,333.83,425Zm-2.16,13.64V428h1.94v10.65Z"/><path class="cls-1" d="M346.46,433.25c0,3.94-2.73,5.66-5.3,5.66-2.88,0-5.1-2.11-5.1-5.48,0-3.56,2.33-5.66,5.28-5.66S346.46,430,346.46,433.25Zm-8.45.11c0,2.33,1.34,4.09,3.23,4.09s3.23-1.74,3.23-4.14c0-1.8-.9-4.09-3.19-4.09S338,431.34,338,433.36Z"/><path class="cls-1" d="M348.9,430.9c0-1.1,0-2-.09-2.88h1.72l.11,1.76h0a3.92,3.92,0,0,1,3.52-2c1.47,0,3.76.88,3.76,4.53v6.36H356v-6.14c0-1.72-.64-3.15-2.46-3.15a2.75,2.75,0,0,0-2.6,2,2.78,2.78,0,0,0-.13.9v6.4H348.9Z"/><path class="cls-1" d="M308.68,449V452h2.77v1.47h-2.77v5.74c0,1.32.37,2.07,1.45,2.07a4.34,4.34,0,0,0,1.12-.13l.09,1.45a4.74,4.74,0,0,1-1.72.26,2.68,2.68,0,0,1-2.09-.81,4,4,0,0,1-.75-2.77v-5.81h-1.65V452h1.65v-2.55Z"/><path class="cls-1" d="M314.57,457.69a3.41,3.41,0,0,0,3.65,3.7,7,7,0,0,0,2.95-.55l.33,1.39a8.62,8.62,0,0,1-3.54.66c-3.28,0-5.24-2.16-5.24-5.37s1.89-5.74,5-5.74c3.48,0,4.4,3.06,4.4,5a7.31,7.31,0,0,1-.07.9Zm5.68-1.39c0-1.23-.51-3.15-2.68-3.15-2,0-2.82,1.8-3,3.15Z"/><path class="cls-1" d="M325.35,452l1.52,2.29c.4.59.73,1.14,1.08,1.74H328c.35-.64.7-1.19,1.06-1.76l1.5-2.27h2.09L329,457.17l3.74,5.5h-2.2l-1.56-2.4c-.42-.62-.77-1.21-1.14-1.85h0c-.35.64-.73,1.21-1.12,1.85l-1.54,2.4H323l3.78-5.43L323.2,452Z"/><path class="cls-1" d="M337.25,449V452H340v1.47h-2.77v5.74c0,1.32.37,2.07,1.45,2.07a4.33,4.33,0,0,0,1.12-.13l.09,1.45a4.74,4.74,0,0,1-1.72.26,2.68,2.68,0,0,1-2.09-.81,4,4,0,0,1-.75-2.77v-5.81h-1.65V452h1.65v-2.55Z"/><polyline class="cls-2" points="534.22 270.42 514.58 270.42 514.58 279.08 534.22 279.08"/><polyline class="cls-2" points="510.1 218 490.47 218 490.47 255.5 510.1 255.5"/><polyline class="cls-2" points="510.1 172.25 490.47 172.25 490.47 189 510.1 189"/><path class="cls-1" d="M225.57,213.67V228.5h-1.91V213.67Z"/><path class="cls-1" d="M229.07,220.73c0-1.1,0-2-.09-2.88h1.72l.11,1.76h0a3.92,3.92,0,0,1,3.52-2c1.47,0,3.76.88,3.76,4.53v6.36h-1.94v-6.14c0-1.72-.64-3.15-2.46-3.15a2.75,2.75,0,0,0-2.6,2,2.78,2.78,0,0,0-.13.9v6.4h-1.94Z"/><path class="cls-1" d="M250.47,212.88v12.87c0,.95,0,2,.09,2.75h-1.74l-.09-1.85h0a3.94,3.94,0,0,1-3.63,2.09c-2.57,0-4.55-2.18-4.55-5.41,0-3.54,2.18-5.72,4.77-5.72a3.56,3.56,0,0,1,3.21,1.63h0v-6.36Zm-1.94,9.31a3.43,3.43,0,0,0-.09-.81,2.85,2.85,0,0,0-2.79-2.24c-2,0-3.19,1.76-3.19,4.11,0,2.16,1.06,3.94,3.15,3.94a2.91,2.91,0,0,0,2.84-2.31,3.36,3.36,0,0,0,.09-.84Z"/><path class="cls-1" d="M255.84,214.86a1.2,1.2,0,0,1-2.4,0,1.18,1.18,0,0,1,1.21-1.21A1.15,1.15,0,0,1,255.84,214.86Zm-2.16,13.64V217.85h1.94V228.5Z"/><path class="cls-1" d="M266.42,228.1a7.12,7.12,0,0,1-3.06.62,5.06,5.06,0,0,1-5.3-5.43,5.41,5.41,0,0,1,5.72-5.65,6.46,6.46,0,0,1,2.68.55l-.44,1.5a4.49,4.49,0,0,0-2.24-.51c-2.44,0-3.76,1.8-3.76,4a3.65,3.65,0,0,0,3.7,4,5.5,5.5,0,0,0,2.38-.53Z"/><path class="cls-1" d="M274.58,228.5l-.15-1.34h-.07a4,4,0,0,1-3.26,1.58,3,3,0,0,1-3.26-3.06c0-2.57,2.29-4,6.4-4v-.22a2.19,2.19,0,0,0-2.42-2.46,5.3,5.3,0,0,0-2.77.79l-.44-1.28a6.61,6.61,0,0,1,3.5-.95c3.26,0,4,2.22,4,4.36v4a15,15,0,0,0,.18,2.55Zm-.29-5.43c-2.11,0-4.51.33-4.51,2.4a1.71,1.71,0,0,0,1.83,1.85,2.65,2.65,0,0,0,2.57-1.78,2,2,0,0,0,.11-.62Z"/><path class="cls-1" d="M281.54,214.79v3.06h2.77v1.47h-2.77v5.74c0,1.32.37,2.07,1.45,2.07a4.33,4.33,0,0,0,1.12-.13l.09,1.45a4.74,4.74,0,0,1-1.72.26,2.68,2.68,0,0,1-2.09-.81,4,4,0,0,1-.75-2.77v-5.81H278v-1.47h1.65V215.3Z"/><path class="cls-1" d="M296,223.09c0,3.94-2.73,5.66-5.3,5.66-2.88,0-5.1-2.11-5.1-5.48,0-3.56,2.33-5.66,5.28-5.66S296,219.83,296,223.09Zm-8.45.11c0,2.33,1.34,4.09,3.23,4.09s3.23-1.74,3.23-4.14c0-1.8-.9-4.09-3.19-4.09S287.54,221.17,287.54,223.2Z"/><path class="cls-1" d="M298.43,221.17c0-1.25,0-2.33-.09-3.32H300l.07,2.09h.09a3.19,3.19,0,0,1,2.95-2.33,2.09,2.09,0,0,1,.55.07v1.83a2.91,2.91,0,0,0-.66-.07,2.72,2.72,0,0,0-2.6,2.49,5.47,5.47,0,0,0-.09.9v5.68h-1.91Z"/><path class="cls-1" d="M248.38,247.09c0,3.94-2.73,5.66-5.3,5.66-2.88,0-5.1-2.11-5.1-5.48,0-3.56,2.33-5.66,5.28-5.66S248.38,243.83,248.38,247.09Zm-8.45.11c0,2.33,1.34,4.09,3.23,4.09s3.23-1.74,3.23-4.14c0-1.8-.9-4.09-3.19-4.09S239.93,245.17,239.93,247.2Z"/><path class="cls-1" d="M257.4,252.5v-9.18h-4.47v9.18H251v-9.18h-1.5v-1.47H251v-.35a5,5,0,0,1,1.19-3.63,3.64,3.64,0,0,1,2.68-1,3.41,3.41,0,0,1,1.52.37l-.4,1.43a2.83,2.83,0,0,0-1.14-.26c-1.52,0-1.94,1.3-1.94,3v.46h4.47v-.51a5,5,0,0,1,1.25-3.72,3.69,3.69,0,0,1,2.57-1,4.41,4.41,0,0,1,1.65.31l-.24,1.5a3,3,0,0,0-1.25-.24c-1.63,0-2.07,1.45-2.07,3.08v.57h2.57v1.47h-2.55v9.18Z"/><path class="cls-1" d="M263.19,250.52a5.07,5.07,0,0,0,2.55.77c1.41,0,2.07-.7,2.07-1.58s-.55-1.43-2-2c-1.91-.68-2.82-1.74-2.82-3,0-1.72,1.39-3.12,3.67-3.12a5.31,5.31,0,0,1,2.62.66l-.48,1.41a4.15,4.15,0,0,0-2.18-.62c-1.14,0-1.78.66-1.78,1.45s.64,1.28,2,1.8c1.85.7,2.79,1.63,2.79,3.21,0,1.87-1.45,3.19-4,3.19a6.08,6.08,0,0,1-3-.73Z"/><path class="cls-1" d="M273.24,247.53a3.41,3.41,0,0,0,3.65,3.7,7,7,0,0,0,2.95-.55l.33,1.39a8.62,8.62,0,0,1-3.54.66c-3.28,0-5.24-2.16-5.24-5.37s1.89-5.74,5-5.74c3.48,0,4.4,3.06,4.4,5a7.31,7.31,0,0,1-.07.9Zm5.68-1.39c0-1.23-.51-3.15-2.68-3.15-2,0-2.82,1.8-3,3.15Z"/><path class="cls-1" d="M285.52,238.79v3.06h2.77v1.47h-2.77v5.74c0,1.32.37,2.07,1.45,2.07a4.33,4.33,0,0,0,1.12-.13l.09,1.45a4.74,4.74,0,0,1-1.72.26,2.68,2.68,0,0,1-2.09-.81,4,4,0,0,1-.75-2.77v-5.81H282v-1.47h1.65V239.3Z"/><path class="cls-1" d="M265.94,98.25,261.1,83.42h2.07l2.31,7.31c.64,2,1.19,3.81,1.58,5.54h0c.42-1.72,1-3.59,1.69-5.52l2.51-7.33h2l-5.3,14.83Z"/><path class="cls-1" d="M280.06,98.25l-.15-1.34h-.07a4,4,0,0,1-3.26,1.58,3,3,0,0,1-3.26-3.06c0-2.57,2.29-4,6.4-4v-.22a2.2,2.2,0,0,0-2.42-2.46,5.31,5.31,0,0,0-2.77.79l-.44-1.28a6.61,6.61,0,0,1,3.5-.95c3.26,0,4,2.22,4,4.36v4a15,15,0,0,0,.18,2.55Zm-.29-5.43c-2.11,0-4.51.33-4.51,2.4a1.71,1.71,0,0,0,1.83,1.85,2.65,2.65,0,0,0,2.57-1.78,2,2,0,0,0,.11-.62Z"/><path class="cls-1" d="M284.77,82.63h1.94V98.25h-1.94Z"/><path class="cls-1" d="M298.88,95.35c0,1.1,0,2.07.09,2.9h-1.72l-.11-1.74h0a4,4,0,0,1-3.52,2c-1.67,0-3.67-.92-3.67-4.67V87.6h1.94v5.9c0,2,.62,3.39,2.38,3.39a2.8,2.8,0,0,0,2.55-1.76,2.84,2.84,0,0,0,.18-1V87.6h1.94Z"/><path class="cls-1" d="M303.16,93.28a3.41,3.41,0,0,0,3.65,3.7,7,7,0,0,0,2.95-.55l.33,1.39a8.62,8.62,0,0,1-3.54.66c-3.28,0-5.24-2.16-5.24-5.37s1.89-5.74,5-5.74c3.48,0,4.4,3.06,4.4,5a7.32,7.32,0,0,1-.07.9Zm5.68-1.39c0-1.23-.51-3.15-2.68-3.15-2,0-2.82,1.8-3,3.15Z"/><path class="cls-1" d="M320.1,84.54V87.6h2.77v1.47H320.1v5.74c0,1.32.37,2.07,1.45,2.07a4.32,4.32,0,0,0,1.12-.13l.09,1.45a4.74,4.74,0,0,1-1.72.26,2.68,2.68,0,0,1-2.09-.81,3.94,3.94,0,0,1-.75-2.77V89.07h-1.65V87.6h1.65V85Z"/><path class="cls-1" d="M326,93.28a3.41,3.41,0,0,0,3.65,3.7,7,7,0,0,0,2.95-.55l.33,1.39a8.62,8.62,0,0,1-3.54.66c-3.28,0-5.24-2.16-5.24-5.37s1.89-5.74,5-5.74c3.48,0,4.4,3.06,4.4,5a7.32,7.32,0,0,1-.07.9Zm5.68-1.39c0-1.23-.51-3.15-2.68-3.15-2,0-2.82,1.8-3,3.15Z"/><path class="cls-1" d="M336.78,87.6l1.52,2.29c.4.59.73,1.14,1.08,1.74h.07c.35-.64.7-1.19,1.06-1.76L342,87.6h2.09l-3.63,5.15,3.74,5.5H342l-1.56-2.4c-.42-.62-.77-1.21-1.14-1.85h0c-.35.64-.73,1.21-1.12,1.85l-1.54,2.4h-2.13l3.78-5.43-3.61-5.21Z"/><path class="cls-1" d="M348.68,84.54V87.6h2.77v1.47h-2.77v5.74c0,1.32.37,2.07,1.45,2.07a4.31,4.31,0,0,0,1.12-.13l.09,1.45a4.74,4.74,0,0,1-1.72.26,2.68,2.68,0,0,1-2.09-.81,3.94,3.94,0,0,1-.75-2.77V89.07h-1.65V87.6h1.65V85Z"/><path class="cls-1" d="M275.38,114.48c0-1.1,0-2-.09-2.88H277l.09,1.72h.07a3.67,3.67,0,0,1,3.34-2,3.15,3.15,0,0,1,3,2.13h0a4.39,4.39,0,0,1,1.19-1.39,3.64,3.64,0,0,1,2.35-.75c1.41,0,3.5.92,3.5,4.62v6.27h-1.89v-6c0-2-.75-3.28-2.31-3.28a2.51,2.51,0,0,0-2.29,1.76,3.19,3.19,0,0,0-.15,1v6.58H282v-6.38c0-1.69-.75-2.93-2.22-2.93a2.65,2.65,0,0,0-2.4,1.94,2.67,2.67,0,0,0-.15.95v6.42h-1.89Z"/><path class="cls-1" d="M299.62,122.25l-.15-1.34h-.07a4,4,0,0,1-3.26,1.58,3,3,0,0,1-3.26-3.06c0-2.57,2.29-4,6.4-4v-.22a2.2,2.2,0,0,0-2.42-2.46,5.31,5.31,0,0,0-2.77.79l-.44-1.28a6.61,6.61,0,0,1,3.5-.95c3.26,0,4,2.22,4,4.36v4a15,15,0,0,0,.18,2.55Zm-.29-5.43c-2.11,0-4.51.33-4.51,2.4a1.71,1.71,0,0,0,1.83,1.85,2.65,2.65,0,0,0,2.57-1.78,2,2,0,0,0,.11-.62Z"/><path class="cls-1" d="M304.33,114.92c0-1.25,0-2.33-.09-3.32h1.69l.07,2.09h.09a3.19,3.19,0,0,1,2.95-2.33,2.1,2.1,0,0,1,.55.07v1.83a2.92,2.92,0,0,0-.66-.07,2.72,2.72,0,0,0-2.6,2.49,5.46,5.46,0,0,0-.09.9v5.68h-1.91Z"/><path class="cls-1" d="M320.52,111.6c0,.77-.09,1.63-.09,2.93v6.18c0,2.44-.48,3.94-1.52,4.86a5.64,5.64,0,0,1-3.87,1.28,6.88,6.88,0,0,1-3.54-.88l.48-1.47a6,6,0,0,0,3.12.84c2,0,3.43-1,3.43-3.72v-1.19h0a3.8,3.8,0,0,1-3.39,1.78c-2.64,0-4.53-2.24-4.53-5.19,0-3.61,2.35-5.65,4.8-5.65a3.54,3.54,0,0,1,3.32,1.85h0l.09-1.61Zm-2,4.2a2.83,2.83,0,0,0-2.82-2.93c-1.85,0-3.17,1.56-3.17,4,0,2.09,1.06,3.83,3.15,3.83a2.83,2.83,0,0,0,2.68-2,3.37,3.37,0,0,0,.15-1Z"/><path class="cls-1" d="M325.67,108.61a1.2,1.2,0,0,1-2.4,0,1.18,1.18,0,0,1,1.21-1.21A1.15,1.15,0,0,1,325.67,108.61Zm-2.16,13.64V111.6h1.94v10.65Z"/><path class="cls-1" d="M328.66,114.48c0-1.1,0-2-.09-2.88h1.72l.11,1.76h0a3.92,3.92,0,0,1,3.52-2c1.47,0,3.76.88,3.76,4.53v6.36h-1.94v-6.14c0-1.72-.64-3.15-2.46-3.15a2.75,2.75,0,0,0-2.6,2,2.79,2.79,0,0,0-.13.9v6.4h-1.94Z"/><path class="cls-1" d="M261.55,154.67v8.78c0,3.32,1.47,4.73,3.45,4.73,2.2,0,3.61-1.45,3.61-4.73v-8.78h1.94v8.65c0,4.56-2.4,6.43-5.61,6.43-3,0-5.32-1.74-5.32-6.34v-8.74Z"/><path class="cls-1" d="M273.81,161.73c0-1.1,0-2-.09-2.88h1.72l.11,1.76h0a3.92,3.92,0,0,1,3.52-2c1.47,0,3.76.88,3.76,4.53v6.36h-1.94v-6.14c0-1.72-.64-3.15-2.46-3.15a2.75,2.75,0,0,0-2.6,2,2.79,2.79,0,0,0-.13.9v6.4h-1.94Z"/><path class="cls-1" d="M288.17,155.86a1.2,1.2,0,0,1-2.4,0,1.18,1.18,0,0,1,1.21-1.21A1.15,1.15,0,0,1,288.17,155.86ZM286,169.5V158.85H288V169.5Z"/><path class="cls-1" d="M293.5,155.79v3.06h2.77v1.47H293.5v5.74c0,1.32.37,2.07,1.45,2.07a4.33,4.33,0,0,0,1.12-.13l.09,1.45a4.74,4.74,0,0,1-1.72.26,2.68,2.68,0,0,1-2.09-.81,4,4,0,0,1-.75-2.77v-5.81H290v-1.47h1.65V156.3Z"/><path class="cls-1" d="M303.11,153.88H305V169.5h-1.94Z"/><path class="cls-1" d="M314.2,169.5l-.15-1.34H314a4,4,0,0,1-3.26,1.58,3,3,0,0,1-3.26-3.06c0-2.57,2.29-4,6.4-4v-.22a2.2,2.2,0,0,0-2.42-2.46,5.31,5.31,0,0,0-2.77.79l-.44-1.28a6.61,6.61,0,0,1,3.5-.95c3.26,0,4,2.22,4,4.36v4a15,15,0,0,0,.18,2.55Zm-.29-5.43c-2.11,0-4.51.33-4.51,2.4a1.71,1.71,0,0,0,1.83,1.85,2.65,2.65,0,0,0,2.57-1.78,2,2,0,0,0,.11-.62Z"/><path class="cls-1" d="M318.82,169.5c0-.73.09-1.8.09-2.75V153.88h1.91v6.69h0a4,4,0,0,1,3.63-2c2.64,0,4.51,2.2,4.49,5.43,0,3.81-2.4,5.7-4.77,5.7a3.79,3.79,0,0,1-3.56-2h-.07l-.09,1.76Zm2-4.27a3.63,3.63,0,0,0,.09.7,3,3,0,0,0,2.9,2.27c2,0,3.23-1.65,3.23-4.09,0-2.13-1.1-4-3.17-4a3.09,3.09,0,0,0-2.95,2.38,3.83,3.83,0,0,0-.11.79Z"/><path class="cls-1" d="M332.5,164.53a3.41,3.41,0,0,0,3.65,3.7,7,7,0,0,0,2.95-.55l.33,1.39a8.62,8.62,0,0,1-3.54.66c-3.28,0-5.24-2.16-5.24-5.37s1.89-5.74,5-5.74c3.48,0,4.4,3.06,4.4,5a7.33,7.33,0,0,1-.07.9Zm5.68-1.39c0-1.23-.51-3.15-2.68-3.15-2,0-2.82,1.8-3,3.15Z"/><path class="cls-1" d="M342.45,153.88h1.94V169.5h-1.94Z"/><path class="cls-1" d="M270.86,185.73c0-1.1,0-2-.09-2.88h1.69l.09,1.72h.07a3.67,3.67,0,0,1,3.34-2,3.15,3.15,0,0,1,3,2.13h0a4.38,4.38,0,0,1,1.19-1.39,3.63,3.63,0,0,1,2.35-.75c1.41,0,3.5.92,3.5,4.62v6.27h-1.89v-6c0-2-.75-3.28-2.31-3.28a2.51,2.51,0,0,0-2.29,1.76,3.19,3.19,0,0,0-.15,1v6.58h-1.89v-6.38c0-1.69-.75-2.93-2.22-2.93a2.89,2.89,0,0,0-2.55,2.88v6.42h-1.89Z"/><path class="cls-1" d="M295.1,193.5l-.15-1.34h-.07a4,4,0,0,1-3.26,1.58,3,3,0,0,1-3.26-3.06c0-2.57,2.29-4,6.4-4v-.22a2.19,2.19,0,0,0-2.42-2.46,5.3,5.3,0,0,0-2.77.79l-.44-1.28a6.61,6.61,0,0,1,3.5-.95c3.26,0,4,2.22,4,4.36v4a15,15,0,0,0,.18,2.55Zm-.29-5.43c-2.11,0-4.51.33-4.51,2.4a1.71,1.71,0,0,0,1.83,1.85,2.65,2.65,0,0,0,2.57-1.78,2,2,0,0,0,.11-.62Z"/><path class="cls-1" d="M299.81,186.17c0-1.25,0-2.33-.09-3.32h1.69l.07,2.09h.09a3.19,3.19,0,0,1,2.95-2.33,2.09,2.09,0,0,1,.55.07v1.83a2.91,2.91,0,0,0-.66-.07,2.72,2.72,0,0,0-2.6,2.49,5.47,5.47,0,0,0-.09.9v5.68h-1.91Z"/><path class="cls-1" d="M316,182.85c0,.77-.09,1.63-.09,2.93V192c0,2.44-.48,3.94-1.52,4.86a5.64,5.64,0,0,1-3.87,1.28,6.87,6.87,0,0,1-3.54-.88l.48-1.47a6,6,0,0,0,3.12.84c2,0,3.43-1,3.43-3.72v-1.19h0a3.8,3.8,0,0,1-3.39,1.78c-2.64,0-4.53-2.24-4.53-5.19,0-3.61,2.35-5.66,4.8-5.66a3.54,3.54,0,0,1,3.32,1.85h0l.09-1.61Zm-2,4.2a2.76,2.76,0,0,0-.11-.88,2.79,2.79,0,0,0-2.71-2c-1.85,0-3.17,1.56-3.17,4,0,2.09,1.06,3.83,3.15,3.83a2.83,2.83,0,0,0,2.68-2,3.36,3.36,0,0,0,.15-1Z"/><path class="cls-1" d="M321.15,179.86a1.2,1.2,0,0,1-2.4,0,1.18,1.18,0,0,1,1.21-1.21A1.15,1.15,0,0,1,321.15,179.86ZM319,193.5V182.85h1.94V193.5Z"/><path class="cls-1" d="M324.14,185.73c0-1.1,0-2-.09-2.88h1.72l.11,1.76h0a3.92,3.92,0,0,1,3.52-2c1.47,0,3.76.88,3.76,4.53v6.36h-1.94v-6.14c0-1.72-.64-3.15-2.46-3.15a2.75,2.75,0,0,0-2.6,2,2.78,2.78,0,0,0-.13.9v6.4h-1.94Z"/></svg>